<svg width="40" height="26" viewBox="0 0 40 26" fill="none" xmlns="http://www.w3.org/2000/svg">
<path d="M4.31805 8.18205H18.1817L15.909 10.4548C15.842 10.5172 15.7882 10.5925 15.751 10.6761C15.7137 10.7597 15.6937 10.85 15.6921 10.9416C15.6904 11.0331 15.7073 11.1241 15.7416 11.209C15.7759 11.2939 15.8269 11.371 15.8916 11.4357C15.9564 11.5005 16.0335 11.5515 16.1184 11.5858C16.2033 11.6201 16.2942 11.6369 16.3858 11.6353C16.4773 11.6337 16.5676 11.6137 16.6513 11.5764C16.7349 11.5391 16.8102 11.4854 16.8726 11.4184L19.9317 8.35932C20.0594 8.23148 20.1311 8.05818 20.1311 7.8775C20.1311 7.69682 20.0594 7.52352 19.9317 7.39568L16.8726 4.33659C16.8081 4.27332 16.7318 4.22336 16.6481 4.18957C16.5643 4.15579 16.4747 4.13883 16.3843 4.13968C16.294 4.14052 16.2047 4.15915 16.1216 4.1945C16.0385 4.22984 15.9631 4.28122 15.8999 4.34568C15.8366 4.41015 15.7866 4.48645 15.7529 4.57022C15.7191 4.65399 15.7021 4.7436 15.703 4.83393C15.7038 4.92426 15.7224 5.01353 15.7578 5.09666C15.7931 5.17979 15.8445 5.25514 15.909 5.31841L17.409 6.81841H4.31805C4.13722 6.81841 3.9638 6.89024 3.83593 7.01811C3.70806 7.14597 3.63623 7.3194 3.63623 7.50023C3.63623 7.68106 3.70806 7.85448 3.83593 7.98235C3.9638 8.11021 4.13722 8.18205 4.31805 8.18205Z" fill="#DC0C1C"/>
<path d="M19.0911 14.7732C19.0911 14.5923 19.0193 14.4189 18.8914 14.291C18.7635 14.1632 18.5901 14.0913 18.4093 14.0913H4.5911L6.81838 11.8686C6.88135 11.8047 6.93113 11.7291 6.96487 11.646C6.99861 11.5629 7.01565 11.4739 7.01501 11.3843C7.01438 11.2946 6.99609 11.2059 6.96118 11.1232C6.92627 11.0406 6.87543 10.9657 6.81156 10.9027C6.74769 10.8397 6.67204 10.79 6.58893 10.7562C6.50582 10.7225 6.41688 10.7054 6.32719 10.7061C6.2375 10.7067 6.14881 10.725 6.06619 10.7599C5.98356 10.7948 5.90862 10.8457 5.84565 10.9095L2.78656 13.9686C2.65888 14.0965 2.58716 14.2698 2.58716 14.4504C2.58716 14.6311 2.65888 14.8044 2.78656 14.9323L5.84565 17.9913C5.97404 18.1203 6.14841 18.193 6.33041 18.1935C6.5124 18.1939 6.68711 18.122 6.8161 17.9936C6.9451 17.8652 7.0178 17.6909 7.01823 17.5089C7.01865 17.3269 6.94677 17.1522 6.81838 17.0232L5.24565 15.455H18.4275C18.6051 15.4502 18.7739 15.3763 18.8979 15.249C19.0218 15.1216 19.0912 14.9509 19.0911 14.7732Z" fill="#DC0C1C"/>
<path d="M39.3182 12.7273H35.9091V7.04545C35.9091 6.86463 35.8373 6.6912 35.7094 6.56334C35.5815 6.43547 35.4081 6.36364 35.2273 6.36364H24.5455V0.681818C24.5455 0.500989 24.4736 0.327566 24.3458 0.1997C24.2179 0.0718346 24.0445 0 23.8636 0H0.681818C0.500989 0 0.327566 0.0718346 0.1997 0.1997C0.0718341 0.327566 0 0.500989 0 0.681818V22.0455C0 22.2263 0.0718341 22.3997 0.1997 22.5276C0.327566 22.6554 0.500989 22.7273 0.681818 22.7273H5.87273C5.96555 23.5793 6.36973 24.3669 7.00771 24.9392C7.64569 25.5114 8.47252 25.8279 9.32955 25.8279C10.1866 25.8279 11.0134 25.5114 11.6514 24.9392C12.2894 24.3669 12.6935 23.5793 12.7864 22.7273H28.0364C28.1292 23.5804 28.5339 24.3692 29.1728 24.9423C29.8116 25.5153 30.6395 25.8322 31.4977 25.8322C32.3559 25.8322 33.1839 25.5153 33.8227 24.9423C34.4615 24.3692 34.8662 23.5804 34.9591 22.7273H39.3182C39.499 22.7273 39.6724 22.6554 39.8003 22.5276C39.9282 22.3997 40 22.2263 40 22.0455V13.4091C40 13.2283 39.9282 13.0548 39.8003 12.927C39.6724 12.7991 39.499 12.7273 39.3182 12.7273ZM9.31818 24.4727C8.89867 24.4745 8.48807 24.3517 8.13844 24.1199C7.78882 23.888 7.51591 23.5576 7.35433 23.1704C7.19275 22.7833 7.14977 22.3568 7.23084 21.9452C7.31191 21.5336 7.51338 21.1554 7.8097 20.8584C8.10603 20.5614 8.48386 20.3592 8.89529 20.2772C9.30672 20.1952 9.73323 20.2373 10.1207 20.3981C10.5082 20.5588 10.8393 20.831 11.0719 21.1801C11.3045 21.5292 11.4282 21.9396 11.4273 22.3591C11.4261 22.9154 11.2062 23.4489 10.815 23.8444C10.4237 24.2399 9.89262 24.4656 9.33636 24.4727H9.31818ZM9.31818 18.8773C8.5718 18.8819 7.84661 19.126 7.2493 19.5736C6.65198 20.0211 6.21408 20.6486 6 21.3636H1.36364V1.36364H23.1818V21.3636H12.6636C12.4497 20.6467 12.0106 20.0178 11.4114 19.57C10.8121 19.1221 10.0845 18.8793 9.33636 18.8773H9.31818ZM31.4955 24.4727C31.0763 24.4727 30.6666 24.3484 30.3182 24.1154C29.9698 23.8825 29.6983 23.5514 29.5381 23.1641C29.3779 22.7768 29.3362 22.3506 29.4183 21.9396C29.5004 21.5286 29.7026 21.1512 29.9993 20.8552C30.296 20.5591 30.6738 20.3577 31.085 20.2765C31.4962 20.1953 31.9222 20.2379 32.3092 20.3989C32.6962 20.5599 33.0267 20.8321 33.2589 21.1811C33.4911 21.53 33.6145 21.94 33.6136 22.3591C33.6124 22.9201 33.3887 23.4577 32.9916 23.8539C32.5945 24.2502 32.0564 24.4727 31.4955 24.4727ZM38.6364 21.3636H34.8318C34.6139 20.6517 34.1733 20.0286 33.5747 19.5858C32.9762 19.1431 32.2513 18.9041 31.5068 18.9041C30.7623 18.9041 30.0375 19.1431 29.4389 19.5858C28.8404 20.0286 28.3997 20.6517 28.1818 21.3636H24.5455V7.72727H34.5455V13.4091C34.5455 13.5899 34.6173 13.7633 34.7452 13.8912C34.873 14.0191 35.0464 14.0909 35.2273 14.0909H38.6364V21.3636Z" fill="#DC0C1C"/>
</svg>
