<svg width="40" height="40" viewBox="0 0 40 40" fill="none" xmlns="http://www.w3.org/2000/svg">
<path d="M39.1129 24.1228L34.9758 22.2841V12.0563C35.0119 11.8884 34.9841 11.713 34.8977 11.5645V11.5323L34.8609 11.4909C34.8135 11.4228 34.7543 11.3636 34.6862 11.3162L25.7593 5.41402L25.6996 5.37265L17.8207 0.113972C17.7065 0.0395956 17.5732 0 17.4369 0C17.3006 0 17.1673 0.0395956 17.0531 0.113972L0.412855 11.2197C0.291068 11.2736 0.187348 11.3613 0.114066 11.4725C0.0626772 11.5494 0.0275959 11.6359 0.0109921 11.7268C-0.00561167 11.8178 -0.00338496 11.9111 0.0175345 12.0012V27.5106C0.0166646 27.6245 0.0444071 27.7368 0.0982175 27.8372C0.152028 27.9376 0.230184 28.0229 0.325517 28.0852L17.2048 39.3242C17.3184 39.3981 17.4508 39.4379 17.5863 39.4392C17.7232 39.4373 17.8568 39.3975 17.9724 39.3242L25.2997 34.4425C25.5216 35.3265 25.9403 36.149 26.5245 36.8487C27.1087 37.5483 27.8434 38.107 28.6737 38.483L31.8914 39.9356C31.9796 39.978 32.0762 40 32.1741 40C32.272 40 32.3686 39.978 32.4568 39.9356L35.6745 38.483C36.6632 38.0343 37.5132 37.3284 38.1358 36.4389C38.7584 35.5495 39.1308 34.5091 39.214 33.4266L39.5496 24.7801C39.5515 24.6393 39.5108 24.5012 39.4329 24.3839C39.355 24.2666 39.2434 24.1756 39.1129 24.1228ZM25.2261 24.1228C25.0998 24.1791 24.9931 24.2717 24.9195 24.3887C24.8459 24.5057 24.8086 24.6419 24.8124 24.7801L25.102 32.9118L18.1747 37.5085V23.5022L33.5738 13.2331V21.7049L32.4338 21.2039C32.3462 21.1652 32.2515 21.1453 32.1557 21.1453C32.0599 21.1453 31.9652 21.1652 31.8776 21.2039L25.2261 24.1228ZM33.0406 11.9276L17.5679 22.2519L9.95571 17.1955L25.3548 6.81143L33.0406 11.9276ZM17.4116 1.51598L24.0907 5.97023L8.71458 16.3543L1.93898 11.8495L17.4116 1.51598ZM1.39656 13.1412L16.7957 23.3919V37.3936L1.39656 27.1429V13.1412ZM37.8442 33.3347C37.7771 34.1711 37.4854 34.9739 37 35.6584C36.5145 36.3429 35.8533 36.8836 35.0861 37.2235L32.1948 38.552L29.2529 37.2235C28.4942 36.8834 27.8404 36.3463 27.3594 35.6681C26.8785 34.9899 26.5879 34.1953 26.5178 33.3669L26.219 25.1984L32.1948 22.5875L38.1705 25.1984L37.8442 33.3347Z" fill="#DC0C1C"/>
</svg>
