<svg width="38" height="40" viewBox="0 0 38 40" fill="none" xmlns="http://www.w3.org/2000/svg">
<path d="M35.1063 2.09608C33.8879 0.865203 32.26 0.124426 30.5316 0.0143114C28.8031 -0.0958029 27.0944 0.432408 25.7296 1.49871C24.3648 2.56502 23.439 4.09523 23.1277 5.79897C22.8165 7.50271 23.1415 9.26144 24.041 10.7414C24.0517 10.7725 24.0665 10.8021 24.0849 10.8293L28.6857 18.5476H23.6605C22.3018 18.5476 20.9988 19.0873 20.0381 20.0481C19.0774 21.0088 18.5377 22.3118 18.5377 23.6704C18.5377 25.0291 19.0774 26.3321 20.0381 27.2928C20.9988 28.2535 22.3018 28.7932 23.6605 28.7932H24.6753C25.9692 28.7932 27.2102 29.3073 28.1252 30.2222C29.0401 31.1372 29.5542 32.3781 29.5542 33.6721C29.5542 34.9661 29.0401 36.207 28.1252 37.122C27.2102 38.0369 25.9692 38.551 24.6753 38.551H8.11154L13.0685 30.6179C13.0929 30.5789 13.1124 30.5399 13.1319 30.5008C13.7818 29.4284 14.1348 28.2024 14.1546 26.9485C14.1744 25.6946 13.8604 24.4581 13.2446 23.3656C12.6289 22.2732 11.7336 21.3642 10.6507 20.7318C9.56776 20.0995 8.33612 19.7666 7.08209 19.7673C5.82705 19.7642 4.59384 20.0955 3.50931 20.7271C2.42477 21.3587 1.52808 22.2679 0.911455 23.361C0.294834 24.4541 -0.01945 25.6918 0.000931894 26.9466C0.0213138 28.2015 0.375625 29.4283 1.02742 30.5008L1.07133 30.5887L6.32099 39.4097C6.34264 39.4469 6.36887 39.4813 6.39905 39.5121C6.44966 39.6552 6.54353 39.7791 6.66766 39.8665C6.79179 39.9539 6.94003 40.0006 7.09185 40H24.6753C26.3574 40 27.9707 39.3318 29.1601 38.1423C30.3496 36.9529 31.0178 35.3396 31.0178 33.6575C31.0178 31.9753 30.3496 30.3621 29.1601 29.1726C27.9707 27.9832 26.3574 27.3149 24.6753 27.3149H23.6605C22.69 27.3149 21.7593 26.9294 21.0731 26.2432C20.3869 25.557 20.0013 24.6263 20.0013 23.6558C20.0013 22.6853 20.3869 21.7546 21.0731 21.0684C21.7593 20.3822 22.69 19.9966 23.6605 19.9966H29.8859C29.9411 20.0017 29.9966 20.0017 30.0518 19.9966C30.1607 19.984 30.2653 19.9472 30.3582 19.889C30.451 19.8307 30.5297 19.7525 30.5885 19.66L36.0821 10.8488C36.1073 10.8129 36.1271 10.7734 36.1406 10.7317C36.9553 9.38287 37.296 7.80055 37.1086 6.236C36.9212 4.67144 36.2165 3.21434 35.1063 2.09608ZM2.37887 29.9349C2.36431 29.8951 2.34463 29.8574 2.32032 29.8227C1.78667 28.9749 1.49039 27.9993 1.46242 26.9979C1.43445 25.9965 1.67581 25.0059 2.16131 24.1297C2.64681 23.2534 3.35864 22.5235 4.2225 22.0162C5.08635 21.5089 6.07055 21.2428 7.07234 21.2456C7.80851 21.2476 8.53708 21.3945 9.21648 21.6779C9.89587 21.9614 10.5128 22.376 11.032 22.8979C11.5512 23.4198 11.9625 24.0388 12.2424 24.7197C12.5223 25.4006 12.6654 26.1299 12.6635 26.8661C12.6614 27.9181 12.3621 28.9481 11.8 29.8373C11.7801 29.8737 11.7622 29.9112 11.7463 29.9495L6.96012 37.6289L2.37887 29.9349ZM35.7015 7.1018C35.6994 8.1538 35.4001 9.18379 34.838 10.073C34.8181 10.1095 34.8002 10.1469 34.7843 10.1852L29.9835 17.8646L25.4022 10.1706L25.3486 10.0584C24.8126 9.21075 24.5142 8.23464 24.4847 7.23219C24.4553 6.22974 24.6957 5.23778 25.1809 4.3601C25.6661 3.48241 26.3783 2.75124 27.2429 2.24309C28.1075 1.73494 29.0928 1.46848 30.0957 1.47158C30.8339 1.47158 31.5649 1.61738 32.2466 1.90062C32.9283 2.18387 33.5474 2.59897 34.0683 3.12211C34.5891 3.64524 35.0016 4.2661 35.2818 4.94905C35.5621 5.632 35.7047 6.36358 35.7015 7.1018Z" fill="#DC0C1C"/>
<path d="M30.1006 3.65747C29.3009 3.68923 28.5445 4.02926 27.9899 4.60634C27.4352 5.18341 27.1255 5.95273 27.1255 6.75311C27.1255 7.55349 27.4352 8.32281 27.9899 8.89989C28.5445 9.47696 29.3009 9.817 30.1006 9.84875C30.9198 9.84747 31.7051 9.52183 32.2847 8.94308C32.8644 8.36432 33.1913 7.57956 33.1939 6.76043C33.1945 6.35358 33.115 5.9506 32.9599 5.57447C32.8048 5.19835 32.5771 4.85646 32.2899 4.56833C32.0027 4.28019 31.6615 4.05145 31.2859 3.89516C30.9102 3.73888 30.5075 3.65811 30.1006 3.65747ZM31.7302 6.75555C31.7308 6.97014 31.689 7.18273 31.607 7.38105C31.525 7.57936 31.4046 7.75948 31.2526 7.91099C31.1007 8.0625 30.9202 8.1824 30.7216 8.26377C30.5231 8.34515 30.3104 8.38638 30.0958 8.38509C29.8801 8.3856 29.6666 8.34267 29.468 8.25884C29.2693 8.17502 29.0896 8.05202 28.9395 7.89721C28.7099 7.66928 28.5534 7.37821 28.4899 7.06104C28.4263 6.74387 28.4586 6.41497 28.5826 6.11621C28.7066 5.81745 28.9167 5.56235 29.1862 5.38341C29.4557 5.20446 29.7723 5.10977 30.0958 5.11137C30.3112 5.11196 30.5244 5.1554 30.7229 5.23916C30.9214 5.32292 31.1013 5.44533 31.2521 5.59926C31.4053 5.7505 31.5273 5.93047 31.611 6.12887C31.6947 6.32727 31.7386 6.54022 31.7399 6.75555H31.7302Z" fill="#DC0C1C"/>
<path d="M7.07733 29.6178C7.89899 29.6178 8.687 29.2914 9.268 28.7104C9.84901 28.1294 10.1754 27.3414 10.1754 26.5197C10.1754 25.698 9.84901 24.91 9.268 24.329C8.687 23.748 7.89899 23.4216 7.07733 23.4216C6.25567 23.4216 5.46766 23.748 4.88665 24.329C4.30565 24.91 3.97925 25.698 3.97925 26.5197C3.97925 27.3414 4.30565 28.1294 4.88665 28.7104C5.46766 29.2914 6.25567 29.6178 7.07733 29.6178ZM5.44291 26.5148C5.44277 26.3 5.4859 26.0873 5.56973 25.8895C5.65355 25.6917 5.77634 25.5128 5.93079 25.3634C6.08081 25.2099 6.25985 25.0876 6.45752 25.0039C6.65519 24.9201 6.86753 24.8765 7.08221 24.8755C7.51528 24.8781 7.92974 25.052 8.23506 25.3591C8.54038 25.6663 8.71176 26.0817 8.71175 26.5148C8.71046 26.9475 8.53769 27.3619 8.23132 27.6674C7.92494 27.9728 7.50996 28.1444 7.07733 28.1444C6.86199 28.143 6.64904 28.0992 6.45064 28.0155C6.25224 27.9317 6.07228 27.8098 5.92104 27.6565C5.61682 27.3542 5.44487 26.9437 5.44291 26.5148Z" fill="#DC0C1C"/>
</svg>
