<svg width="39" height="39" viewBox="0 0 39 39" fill="none" xmlns="http://www.w3.org/2000/svg">
<path d="M33.8811 6.33748H37.2936C37.4876 6.33748 37.6736 6.26044 37.8107 6.1233C37.9478 5.98616 38.0249 5.80017 38.0249 5.60623C38.0249 5.41229 37.9478 5.2263 37.8107 5.08916C37.6736 4.95202 37.4876 4.87498 37.2936 4.87498H32.4186C32.2247 4.87498 32.0387 4.95202 31.9016 5.08916C31.7644 5.2263 31.6874 5.41229 31.6874 5.60623V10.4812C31.6874 10.6752 31.7644 10.8611 31.9016 10.9983C32.0387 11.1354 32.2247 11.2125 32.4186 11.2125C32.6126 11.2125 32.7986 11.1354 32.9357 10.9983C33.0728 10.8611 33.1499 10.6752 33.1499 10.4812V7.70735C35.9951 10.9755 37.5545 15.1669 37.5374 19.4999C37.5374 23.0674 36.4795 26.5548 34.4975 29.521C32.5155 32.4872 29.6985 34.7991 26.4026 36.1643C23.1067 37.5296 19.4799 37.8868 15.981 37.1908C12.4821 36.4948 9.26813 34.7769 6.74555 32.2543C4.22297 29.7317 2.50507 26.5178 1.80909 23.0189C1.11311 19.5199 1.47031 15.8932 2.83552 12.5973C4.20073 9.30139 6.51264 6.48433 9.47888 4.50235C12.4451 2.52037 15.9325 1.46249 19.4999 1.46249C19.6939 1.46249 19.8799 1.38545 20.017 1.24832C20.1541 1.11118 20.2312 0.925186 20.2312 0.731247C20.2312 0.537309 20.1541 0.351313 20.017 0.214177C19.8799 0.0770418 19.6939 5.77983e-09 19.4999 0C15.6432 0 11.8731 1.14365 8.66636 3.28633C5.45961 5.42901 2.96026 8.47448 1.48435 12.0376C0.00844901 15.6008 -0.377715 19.5216 0.374695 23.3042C1.1271 27.0868 2.98429 30.5613 5.71141 33.2885C8.43852 36.0156 11.9131 37.8728 15.6957 38.6252C19.4783 39.3776 23.3991 38.9914 26.9622 37.5155C30.5254 36.0396 33.5709 33.5403 35.7135 30.3335C37.8562 27.1268 38.9999 23.3567 38.9999 19.4999C39.0178 14.6233 37.189 9.92071 33.8811 6.33748Z" fill="#DC0C1C"/>
<path d="M6.3374 19.7436C6.3374 22.3951 7.12366 24.9871 8.59676 27.1917C10.0698 29.3963 12.1636 31.1146 14.6133 32.1293C17.0629 33.144 19.7585 33.4095 22.359 32.8922C24.9596 32.3749 27.3483 31.0981 29.2232 29.2232C31.0981 27.3483 32.3749 24.9596 32.8922 22.359C33.4095 19.7585 33.144 17.0629 32.1293 14.6133C31.1146 12.1636 29.3963 10.0698 27.1917 8.59676C24.9871 7.12366 22.3951 6.3374 19.7436 6.3374C16.1892 6.34127 12.7816 7.75495 10.2683 10.2683C7.75495 12.7816 6.34127 16.1892 6.3374 19.7436ZM31.6873 19.7436C31.6873 22.1058 30.9868 24.415 29.6744 26.3792C28.362 28.3433 26.4967 29.8742 24.3143 30.7782C22.1318 31.6821 19.7304 31.9187 17.4135 31.4578C15.0967 30.997 12.9685 29.8594 11.2981 28.1891C9.62777 26.5187 8.49024 24.3906 8.02939 22.0737C7.56854 19.7569 7.80507 17.3554 8.70906 15.1729C9.61305 12.9905 11.1439 11.1252 13.108 9.81277C15.0722 8.50038 17.3814 7.7999 19.7436 7.7999C22.9101 7.80377 25.9458 9.06336 28.1848 11.3024C30.4238 13.5414 31.6834 16.5771 31.6873 19.7436Z" fill="#DC0C1C"/>
<path d="M19.0127 11.4563V19.7438C19.0128 19.8883 19.0558 20.0296 19.1361 20.1497C19.2165 20.2699 19.3307 20.3635 19.4642 20.4188C19.5977 20.4741 19.7447 20.4886 19.8864 20.4604C20.0282 20.4322 20.1584 20.3627 20.2607 20.2606L26.5982 13.9231C26.7273 13.7845 26.7977 13.6011 26.7943 13.4117C26.791 13.2222 26.7142 13.0415 26.5803 12.9075C26.4463 12.7735 26.2655 12.6968 26.0761 12.6934C25.8866 12.6901 25.7033 12.7604 25.5647 12.8896L20.4752 17.9791V11.4563C20.4752 11.2624 20.3981 11.0764 20.261 10.9393C20.1239 10.8021 19.9379 10.7251 19.7439 10.7251C19.55 10.7251 19.364 10.8021 19.2269 10.9393C19.0897 11.0764 19.0127 11.2624 19.0127 11.4563Z" fill="#DC0C1C"/>
</svg>
