<svg width="33" height="38" viewBox="0 0 33 38" fill="none" xmlns="http://www.w3.org/2000/svg">
<path d="M16.5201 22.2212C12.5268 22.2287 8.69939 23.8193 5.87701 26.6444C3.05464 29.4694 1.46761 33.2983 1.46387 37.2916C1.46387 37.4795 1.5385 37.6597 1.67136 37.7925C1.80421 37.9254 1.9844 38 2.17228 38H30.8868C31.0747 38 31.2549 37.9254 31.3877 37.7925C31.5206 37.6597 31.5952 37.4795 31.5952 37.2916C31.5915 33.295 30.0018 29.4633 27.1754 26.6377C24.3489 23.8121 20.5167 22.2237 16.5201 22.2212ZM2.8807 36.5832C3.05308 33.0838 4.56458 29.7847 7.10224 27.3689C9.6399 24.9532 13.0094 23.6059 16.513 23.6059C20.0167 23.6059 23.3861 24.9532 25.9238 27.3689C28.4615 29.7847 29.9729 33.0838 30.1453 36.5832H2.8807Z" fill="#DC0C1C"/>
<path d="M16.2704 3.36792C14.5476 3.36699 12.8632 3.87707 11.4303 4.83365C9.99741 5.79023 8.88045 7.15031 8.22071 8.74183C7.56098 10.3334 7.38812 12.0848 7.724 13.7746C8.05988 15.4644 8.88941 17.0166 10.1076 18.2348C11.3259 19.453 12.8781 20.2826 14.5679 20.6184C16.2576 20.9543 18.0091 20.7815 19.6006 20.1217C21.1921 19.462 22.5522 18.345 23.5088 16.9121C24.4654 15.4793 24.9754 13.7949 24.9745 12.072C24.972 9.76431 24.0542 7.55184 22.4224 5.92005C20.7906 4.28826 18.5781 3.37042 16.2704 3.36792ZM16.2704 19.364C14.828 19.3649 13.4177 18.9381 12.2179 18.1374C11.0182 17.3367 10.0828 16.1982 9.53015 14.8658C8.97751 13.5335 8.83243 12.0671 9.11326 10.6523C9.39409 9.2375 10.0882 7.93775 11.1078 6.91748C12.1274 5.8972 13.4267 5.20224 14.8414 4.92049C16.256 4.63875 17.7224 4.78288 19.0551 5.33465C20.3878 5.88642 21.527 6.82105 22.3284 8.02032C23.1299 9.21958 23.5577 10.6296 23.5577 12.072C23.5564 14.0048 22.7884 15.8581 21.4222 17.2252C20.056 18.5923 18.2032 19.3615 16.2704 19.364Z" fill="#DC0C1C"/>
<path d="M5.56344 16.7474C5.75132 16.7474 5.93151 16.6728 6.06436 16.5399C6.19722 16.4071 6.27186 16.2269 6.27186 16.039V8.24642C6.29576 8.21394 6.31633 8.17913 6.33325 8.14252C7.11715 6.15587 8.47876 4.44992 10.2422 3.24508C12.0056 2.04024 14.0898 1.39187 16.2255 1.38374C18.3612 1.3756 20.4503 2.00807 22.2228 3.19944C23.9954 4.39081 25.3699 6.08633 26.1689 8.06695V16.0485C25.645 17.3685 24.8613 18.5698 23.8642 19.5811C23.7316 19.7139 23.657 19.894 23.657 20.0817C23.657 20.2694 23.7316 20.4495 23.8642 20.5823C23.9901 20.7076 24.159 20.7802 24.3365 20.7854C24.4303 20.7857 24.5231 20.7675 24.6099 20.7318C24.6966 20.6962 24.7754 20.6438 24.8418 20.5776C25.9465 19.4803 26.8285 18.1797 27.4394 16.7474H27.7794C29.032 16.7474 30.2332 16.2499 31.1189 15.3642C32.0046 14.4785 32.5022 13.2772 32.5022 12.0246C32.5022 10.7721 32.0046 9.57083 31.1189 8.68513C30.2332 7.79944 29.032 7.30186 27.7794 7.30186H27.3921C26.4576 5.13373 24.9085 3.2868 22.9362 1.98916C20.9638 0.691521 18.6546 0 16.2936 0C13.9327 0 11.6234 0.691521 9.65104 1.98916C7.67867 3.2868 6.12958 5.13373 5.19506 7.30186H4.72278C3.47022 7.30186 2.26896 7.79944 1.38327 8.68513C0.497577 9.57083 0 10.7721 0 12.0246C0 13.2772 0.497577 14.4785 1.38327 15.3642C2.26896 16.2499 3.47022 16.7474 4.72278 16.7474H5.56344ZM27.5905 8.7187H27.7605C28.6373 8.7187 29.4782 9.067 30.0982 9.68699C30.7182 10.307 31.0665 11.1479 31.0665 12.0246C31.0665 12.9014 30.7182 13.7423 30.0982 14.3623C29.4782 14.9823 28.6373 15.3306 27.7605 15.3306H27.5905V8.7187ZM1.37905 12.0246C1.37905 11.1479 1.72736 10.307 2.34734 9.68699C2.96733 9.067 3.80821 8.7187 4.685 8.7187H4.85502V15.3306H4.685C3.80821 15.3306 2.96733 14.9823 2.34734 14.3623C1.72736 13.7423 1.37905 12.9014 1.37905 12.0246Z" fill="#DC0C1C"/>
</svg>
