<svg width="45" height="38" viewBox="0 0 45 38" fill="none" xmlns="http://www.w3.org/2000/svg">
<path d="M44.1867 31.9879H36.8675V0.813253C36.8675 0.597565 36.7818 0.390711 36.6293 0.238197C36.4768 0.0856822 36.2699 0 36.0542 0C35.8385 0 35.6317 0.0856822 35.4792 0.238197C35.3266 0.390711 35.241 0.597565 35.241 0.813253V27.6506H32.5301V25.0536C32.5287 23.5859 31.945 22.1788 30.9072 21.141C29.8694 20.1032 28.4623 19.5195 26.9946 19.5181H26.8265L17.7181 4.03374C16.9936 2.80822 15.963 1.79205 14.7273 1.0849C13.4917 0.37775 12.0935 0.00389458 10.6699 0H4.06626C3.85058 0 3.64372 0.0856822 3.49121 0.238197C3.33869 0.390711 3.25301 0.597565 3.25301 0.813253V19.5181H0.813253C0.597565 19.5181 0.390711 19.6038 0.238196 19.7563C0.0856817 19.9088 0 20.1156 0 20.3313V32.8012C0 33.0169 0.0856817 33.2237 0.238196 33.3763C0.390711 33.5288 0.597565 33.6145 0.813253 33.6145H3.91988C4.16778 34.6899 4.77292 35.6495 5.6365 36.3366C6.50008 37.0238 7.57109 37.3979 8.6747 37.3979C9.77831 37.3979 10.8493 37.0238 11.7129 36.3366C12.5765 35.6495 13.1816 34.6899 13.4295 33.6145H19.1006C19.3485 34.6899 19.9536 35.6495 20.8172 36.3366C21.6808 37.0238 22.7518 37.3979 23.8554 37.3979C24.959 37.3979 26.03 37.0238 26.8936 36.3366C27.7572 35.6495 28.3623 34.6899 28.6102 33.6145H31.7169C31.9326 33.6145 32.1394 33.5288 32.2919 33.3763C32.4444 33.2237 32.5301 33.0169 32.5301 32.8012V29.2771H35.241V32.8012C35.241 33.0169 35.3266 33.2237 35.4792 33.3763C35.6317 33.5288 35.8385 33.6145 36.0542 33.6145H44.1867C44.4024 33.6145 44.6093 33.5288 44.7618 33.3763C44.9143 33.2237 45 33.0169 45 32.8012C45 32.5855 44.9143 32.3787 44.7618 32.2261C44.6093 32.0736 44.4024 31.9879 44.1867 31.9879ZM4.87952 1.62651H10.6645C11.8081 1.63215 12.9307 1.93497 13.922 2.50525C14.9134 3.07554 15.7395 3.89371 16.3193 4.87952L24.9398 19.5181H4.87952V1.62651ZM8.6747 35.7831C8.03131 35.7831 7.40238 35.5923 6.86742 35.2349C6.33247 34.8775 5.91552 34.3694 5.66931 33.775C5.42309 33.1806 5.35867 32.5265 5.48419 31.8955C5.60971 31.2645 5.91953 30.6848 6.37447 30.2299C6.82941 29.775 7.40904 29.4651 8.04007 29.3396C8.67109 29.2141 9.32516 29.2785 9.91957 29.5247C10.514 29.7709 11.022 30.1879 11.3795 30.7228C11.7369 31.2578 11.9277 31.8867 11.9277 32.5301C11.9277 33.3929 11.585 34.2203 10.9749 34.8303C10.3649 35.4404 9.53745 35.7831 8.6747 35.7831ZM23.8554 35.7831C23.212 35.7831 22.5831 35.5923 22.0481 35.2349C21.5132 34.8775 21.0962 34.3694 20.85 33.775C20.6038 33.1806 20.5394 32.5265 20.6649 31.8955C20.7904 31.2645 21.1003 30.6848 21.5552 30.2299C22.0101 29.775 22.5898 29.4651 23.2208 29.3396C23.8518 29.2141 24.5059 29.2785 25.1003 29.5247C25.6947 29.7709 26.2028 30.1879 26.5602 30.7228C26.9176 31.2578 27.1084 31.8867 27.1084 32.5301C27.1084 33.3929 26.7657 34.2203 26.1556 34.8303C25.5456 35.4404 24.7182 35.7831 23.8554 35.7831ZM30.9036 31.9879H28.7024C28.5645 30.7992 27.9945 29.7026 27.1008 28.9067C26.2071 28.1107 25.0521 27.6709 23.8554 27.6709C22.6587 27.6709 21.5037 28.1107 20.61 28.9067C19.7164 29.7026 19.1464 30.7992 19.0084 31.9879H13.5217C13.3837 30.7992 12.8137 29.7026 11.9201 28.9067C11.0264 28.1107 9.87142 27.6709 8.6747 27.6709C7.47797 27.6709 6.32298 28.1107 5.42932 28.9067C4.53566 29.7026 3.96567 30.7992 3.82771 31.9879H1.62651V21.1446H26.9946C28.0304 21.1474 29.0231 21.5602 29.7555 22.2927C30.488 23.0251 30.9008 24.0178 30.9036 25.0536V31.9879Z" fill="#DC0C1C"/>
</svg>
