<svg width="31" height="40" viewBox="0 0 31 40" fill="none" xmlns="http://www.w3.org/2000/svg">
<path d="M30.4319 6.52962L15.6694 0.054853C15.5879 0.0186854 15.4997 0 15.4104 0C15.3212 0 15.233 0.0186854 15.1515 0.054853L0.388975 6.52962C0.269686 6.58032 0.168639 6.6661 0.099251 6.77558C0.0298634 6.88506 -0.00458161 7.01305 0.000489252 7.14257L0.673865 26.2949C0.851838 28.5298 1.62672 30.6758 2.91755 32.5087C4.20838 34.3417 5.96779 35.7944 8.01194 36.715L15.1515 39.9394C15.235 39.9793 15.3265 40 15.4191 40C15.5117 40 15.6031 39.9793 15.6867 39.9394L22.8262 36.715C24.8746 35.792 26.6368 34.3346 27.928 32.4959C29.2191 30.6572 29.9915 28.5048 30.1643 26.2647L30.8377 7.14257C30.8414 7.01105 30.8044 6.8816 30.7318 6.77189C30.6591 6.66218 30.5544 6.57757 30.4319 6.52962ZM28.8564 26.1913C28.6982 28.1945 28.0051 30.1185 26.8495 31.7624C25.6938 33.4062 24.118 34.7097 22.2866 35.5366L15.4104 38.6402L8.53424 35.5366C6.71089 34.7133 5.14077 33.4176 3.98643 31.7836C2.83209 30.1496 2.13551 28.2368 1.96882 26.2431L1.30839 7.53969L15.4104 1.36276L29.5125 7.53969L28.8564 26.1913Z" fill="#DC0C1C"/>
<path d="M10.8783 11.7741V14.1568H6.34596C6.17424 14.1568 6.00955 14.225 5.88813 14.3465C5.7667 14.4679 5.69849 14.6326 5.69849 14.8043V27.3222C5.69849 27.4939 5.7667 27.6586 5.88813 27.78C6.00955 27.9015 6.17424 27.9697 6.34596 27.9697H24.4753C24.647 27.9697 24.8117 27.9015 24.9332 27.78C25.0546 27.6586 25.1228 27.4939 25.1228 27.3222V14.8043C25.1228 14.6326 25.0546 14.4679 24.9332 14.3465C24.8117 14.225 24.647 14.1568 24.4753 14.1568H19.943V11.623C19.9423 11.0054 19.8156 10.3943 19.5707 9.82728C19.3258 9.26024 18.9678 8.74913 18.5185 8.32522C18.069 7.8979 17.5359 7.56836 16.9527 7.35737C16.3695 7.14638 15.7489 7.05852 15.1301 7.09933C13.96 7.19243 12.8693 7.7275 12.0796 8.59581C11.2899 9.46411 10.8603 10.6005 10.8783 11.7741ZM23.8278 26.6747H6.99344V15.4518H23.8278V26.6747ZM17.6293 9.26622C17.9523 9.5677 18.2095 9.93267 18.3848 10.3382C18.5601 10.7438 18.6497 11.1812 18.648 11.623V14.1568H12.1733V11.7741C12.1545 10.9322 12.456 10.1145 13.0169 9.48635C13.5777 8.85817 14.3562 8.46631 15.1948 8.38997C15.6391 8.36 16.0848 8.42238 16.5038 8.57319C16.9228 8.724 17.306 8.95997 17.6293 9.26622Z" fill="#DC0C1C"/>
<path d="M15.4106 17.6316C14.9018 17.6406 14.4126 17.8292 14.0293 18.1639C13.6461 18.4987 13.3934 18.9581 13.3159 19.461C13.2385 19.9639 13.3412 20.4781 13.606 20.9126C13.8708 21.3472 14.2807 21.6742 14.7631 21.8359V23.869C14.7631 24.0407 14.8314 24.2054 14.9528 24.3268C15.0742 24.4482 15.2389 24.5164 15.4106 24.5164C15.5823 24.5164 15.747 24.4482 15.8685 24.3268C15.9899 24.2054 16.0581 24.0407 16.0581 23.869V21.8359C16.5406 21.6742 16.9504 21.3472 17.2152 20.9126C17.48 20.4781 17.5828 19.9639 17.5053 19.461C17.4279 18.9581 17.1752 18.4987 16.7919 18.1639C16.4086 17.8292 15.9194 17.6406 15.4106 17.6316ZM15.4106 20.6532C15.2399 20.6532 15.073 20.6025 14.931 20.5077C14.789 20.4128 14.6784 20.278 14.613 20.1202C14.5477 19.9625 14.5306 19.7889 14.5639 19.6214C14.5972 19.454 14.6794 19.3001 14.8002 19.1794C14.9209 19.0587 15.0747 18.9764 15.2422 18.9431C15.4097 18.9098 15.5832 18.9269 15.741 18.9923C15.8987 19.0576 16.0336 19.1683 16.1284 19.3102C16.2233 19.4522 16.2739 19.6191 16.2739 19.7898C16.2739 20.0188 16.183 20.2384 16.0211 20.4003C15.8592 20.5622 15.6396 20.6532 15.4106 20.6532Z" fill="#DC0C1C"/>
</svg>
