<svg width="60" height="17" viewBox="0 0 60 17" fill="none" xmlns="http://www.w3.org/2000/svg">
<path d="M2.39186 0.136507L2.23115 0.263737L2.21106 5.12524C2.19766 9.17649 2.21106 9.99344 2.28472 10.0269C2.35838 10.0537 3.20211 9.60505 3.87174 9.18319C3.92531 9.14971 4.09271 9.05596 4.24003 8.9823C4.38735 8.90194 4.57485 8.77471 4.6619 8.69436C4.80922 8.56043 4.80922 8.55374 4.80922 6.32387C4.80922 4.50248 4.82261 4.09401 4.89627 4.09401C4.99671 4.09401 5.25117 4.22124 5.57929 4.42883C5.69313 4.50248 5.82705 4.58284 5.88062 4.60962C5.93419 4.63641 6.24892 4.81721 6.58373 5.0181C6.91185 5.21899 7.23997 5.40648 7.32032 5.43996C7.39398 5.47345 7.548 5.5605 7.65514 5.63416C7.76897 5.70782 7.9029 5.78817 7.95647 5.81496C8.01004 5.84174 8.34485 6.02924 8.69306 6.23682C9.04127 6.44441 9.37608 6.6319 9.42965 6.65869C9.48322 6.68547 9.62384 6.76583 9.73098 6.83949C9.84482 6.91315 9.99214 7.0002 10.0658 7.03368C10.1395 7.06716 10.2533 7.15421 10.3203 7.22787C10.4408 7.3551 10.4341 7.3618 10.0524 7.58278C9.83813 7.71 9.62384 7.83054 9.56358 7.86402C9.51001 7.8908 9.37608 7.97116 9.26225 8.04482C9.1551 8.11848 9.00109 8.20553 8.92073 8.23901C8.84708 8.27249 8.58592 8.41981 8.35155 8.56043C8.11718 8.70775 7.87611 8.84168 7.82254 8.86846C7.76897 8.89525 7.63505 8.9756 7.52121 9.04926C7.41407 9.12292 7.27345 9.20328 7.21988 9.23006C7.16631 9.25685 6.8248 9.45104 6.4632 9.66532C6.0949 9.8796 5.79357 10.0537 5.78018 10.0537C5.76678 10.0537 5.45876 10.2278 5.09716 10.4421C4.73556 10.6564 4.39405 10.8506 4.34048 10.8773C4.28691 10.9041 4.17977 10.9644 4.10611 11.0113C4.03245 11.0581 3.68424 11.259 3.33603 11.4599C2.98783 11.6608 2.63962 11.8617 2.56596 11.9086C2.4923 11.9554 2.38516 12.009 2.33159 12.0358C2.22445 12.0894 0.965548 12.8193 0.791445 12.9331C0.737874 12.9666 0.563771 13.0603 0.40306 13.1474C0.242349 13.2277 0.0816384 13.3483 0.048157 13.4152C0.0146756 13.4822 -0.00541327 14.1317 0.00128302 14.8884C0.0213719 16.4888 0.00128303 16.4487 0.744571 16C1.00573 15.8393 1.27358 15.6853 1.32715 15.6585C1.38072 15.6317 1.52134 15.5514 1.62848 15.4777C1.74232 15.404 1.87624 15.3237 1.92981 15.2969C1.98338 15.2701 2.40525 15.029 2.8606 14.7612C3.30925 14.4933 3.69763 14.2724 3.71102 14.2724C3.72442 14.2724 4.03245 14.0983 4.38735 13.884C4.74895 13.6697 5.09046 13.4755 5.14403 13.4487C5.1976 13.4219 5.33822 13.3416 5.44536 13.2679C5.5592 13.1943 5.69313 13.1139 5.7467 13.0871C5.86723 13.0336 7.13952 12.2903 7.28684 12.1965C7.34041 12.1563 7.43416 12.1095 7.48773 12.0827C7.5413 12.0559 7.87611 11.8684 8.22432 11.6608C8.57253 11.4532 8.90734 11.2657 8.96091 11.2389C9.01448 11.2122 9.1551 11.1318 9.26225 11.0581C9.37608 10.9845 9.5234 10.8974 9.60376 10.864C9.67741 10.8305 9.93857 10.6832 10.1729 10.5358C10.4073 10.3952 10.7823 10.1742 11.0033 10.0537C12.3358 9.31711 12.8113 8.8015 13.0523 7.82384C13.2465 7.04038 12.9184 5.96227 12.3358 5.42657C12.135 5.23908 11.4586 4.79042 11.1707 4.6565C11.1171 4.62971 10.876 4.48909 10.6417 4.34177C10.4073 4.20115 10.1462 4.05383 10.0725 4.02035C9.99214 3.98687 9.84482 3.89982 9.73098 3.82616C9.62384 3.7525 9.48322 3.67215 9.42965 3.64536C9.37608 3.61858 9.04127 3.43108 8.69306 3.22349C8.34485 3.01591 8.01004 2.82841 7.95647 2.80163C7.9029 2.77484 7.76897 2.69449 7.65514 2.62083C7.548 2.54717 7.40737 2.46681 7.3538 2.44003C7.30023 2.41324 7.05917 2.27932 6.8248 2.132C6.59043 1.99138 6.32927 1.84406 6.25561 1.81058C6.17526 1.7771 6.02794 1.69005 5.9141 1.61639C5.80696 1.54273 5.66634 1.46237 5.61277 1.43559C5.5592 1.4088 5.24447 1.228 4.90966 1.02711C4.58154 0.826225 4.25342 0.638729 4.17307 0.605247C4.09941 0.571766 3.95209 0.484714 3.83825 0.417751C3.14854 -0.0242036 2.69989 -0.111255 2.39186 0.136507ZM54.797 2.65431C54.6765 2.78824 54.5492 2.96234 54.5291 3.04269C54.489 3.17662 54.3617 3.53152 54.2211 3.85964C54.1541 4.02705 53.9131 4.64311 53.7791 4.99801C53.7189 5.14533 53.6519 5.32613 53.6184 5.39979C53.5381 5.59398 53.2903 6.23013 53.1832 6.51807C53.0225 6.95332 52.8752 7.33501 52.8149 7.47564C52.7546 7.62295 52.5336 8.19214 52.3729 8.614C52.3127 8.76132 52.2256 8.9756 52.1787 9.09614C52.1252 9.20997 52.085 9.3372 52.085 9.37068C52.085 9.41086 52.0448 9.5247 51.9912 9.63184C51.9377 9.73228 51.8506 9.93987 51.7971 10.0872C51.6497 10.4756 51.4756 10.9309 51.3819 11.1586C51.335 11.2657 51.2413 11.4934 51.181 11.6608C51.1207 11.8282 51.027 12.0559 50.9801 12.163C50.9332 12.2769 50.873 12.4644 50.8529 12.5849L50.7993 12.7992H52.7948L52.9488 12.4108C53.0292 12.2032 53.143 11.922 53.1899 11.7947C53.4042 11.2189 53.5783 10.8171 53.6452 10.7367C53.6921 10.6765 54.1073 10.6564 55.4532 10.6698C56.9197 10.6899 57.201 10.7032 57.2411 10.7903C57.2746 10.8439 57.3416 11.0113 57.3951 11.1586C57.4487 11.3059 57.5492 11.5604 57.6094 11.7278C57.6697 11.8952 57.7701 12.1496 57.8237 12.297C58.0112 12.7992 57.9308 12.7657 59.0089 12.7858L60 12.8059L59.9531 12.5849C59.933 12.4644 59.8661 12.2434 59.8058 12.0961C59.7522 11.9488 59.6585 11.7077 59.6049 11.5604C59.5447 11.4131 59.4576 11.172 59.404 11.0247C59.3438 10.8773 59.2567 10.6363 59.2031 10.489C59.1429 10.3416 59.0625 10.1073 59.0089 9.96665C58.9554 9.83273 58.875 9.60505 58.8214 9.46443C58.6808 9.08274 58.5402 8.70775 58.413 8.37963C58.3527 8.21223 58.259 7.96446 58.2054 7.82384C58.1518 7.68992 58.0715 7.46224 58.0179 7.32162C57.9643 7.18769 57.8773 6.95332 57.8237 6.80601C57.7634 6.65869 57.6228 6.2837 57.509 5.96897C57.3884 5.65425 57.2545 5.29265 57.2076 5.16542C56.759 4.00026 56.6385 3.68554 56.5447 3.40429C56.4175 3.0293 56.2635 2.77484 56.0358 2.57395C55.9019 2.45342 55.788 2.42664 55.4465 2.41994C55.0581 2.41994 55.018 2.43333 54.797 2.65431ZM55.6072 5.70112C55.6541 5.79487 55.7412 6.04933 55.8014 6.2703C55.8617 6.49128 55.9554 6.77922 56.0023 6.90645C56.0492 7.03368 56.1362 7.30823 56.1898 7.50912C56.2501 7.71 56.3773 8.11848 56.4711 8.40642C56.5648 8.70105 56.6184 8.96221 56.5849 8.99569C56.5514 9.02917 56.0157 9.04257 55.393 9.03587L54.2613 9.01578L54.2814 8.7948C54.2948 8.67427 54.3483 8.49347 54.4019 8.39303C54.4488 8.29258 54.4957 8.15866 54.4957 8.09169C54.4957 8.03143 54.5224 7.92429 54.5626 7.85732C54.6698 7.67652 55.0849 6.43771 55.2456 5.81496C55.3394 5.46005 55.4733 5.41988 55.6072 5.70112ZM18.925 2.66101C18.8647 2.72127 18.8513 12.4309 18.9116 12.6452L18.9518 12.7992H20.5388C22.2062 12.7992 22.8624 12.7255 23.5454 12.4711C23.8735 12.3505 24.3958 12.0693 24.6235 11.9019C24.8043 11.7613 25.4003 11.1586 25.5878 10.9309C25.8289 10.6229 26.3713 9.56488 26.3713 9.39747C26.3713 9.32381 26.4114 9.1631 26.465 9.04257C26.6793 8.50686 26.6458 6.75244 26.4047 6.03593C26.1771 5.3797 25.9829 4.99131 25.6414 4.52927C25.2664 4.02035 24.7575 3.55161 24.3691 3.35072C24.2017 3.26367 24.0142 3.15653 23.9606 3.11635C23.907 3.07618 23.6927 2.99582 23.4919 2.93555C23.291 2.88198 23.003 2.79493 22.8557 2.74806C22.5477 2.66101 19.0053 2.57395 18.925 2.66101ZM21.9517 4.39534C22.8959 4.53597 23.3177 4.71677 23.7597 5.18551C24.3624 5.80826 24.5766 6.47119 24.5833 7.74349C24.59 8.4332 24.5633 8.68097 24.4695 8.94882C24.0343 10.114 23.5923 10.576 22.5343 10.9309C22.2263 11.0314 21.9986 11.0581 21.4964 11.0448L20.8468 11.0247L20.8267 7.79036C20.82 5.63416 20.8334 4.51588 20.8803 4.42883C20.9674 4.26811 21.0946 4.26811 21.9517 4.39534ZM27.9784 7.71V12.7992L30.5765 12.7858L33.168 12.7657V11.0916L31.5609 11.0581L29.9538 11.0247L29.9337 9.72559C29.9203 8.82829 29.9404 8.39972 29.9939 8.33946C30.0542 8.2658 30.3689 8.24571 31.5341 8.24571C32.4649 8.24571 33.0006 8.21892 33.0073 8.17875V6.70556C33.0006 6.66538 32.4113 6.6319 31.4805 6.62521L29.9538 6.60512V4.32838L31.4872 4.30829C32.5051 4.3016 33.0541 4.26812 33.1144 4.21454C33.1814 4.16097 33.2015 3.96009 33.1881 3.3976L33.168 2.65431L30.5765 2.63422L27.9784 2.62083V7.71ZM35.0095 7.71V12.7992H35.9001C36.5027 12.7992 36.8175 12.7724 36.871 12.7188C36.9313 12.6586 36.9514 12.0693 36.9514 10.4756C36.9514 9.13631 36.9782 8.31267 37.0183 8.31267C37.0518 8.31267 37.1121 8.35285 37.1523 8.39303C37.2393 8.50686 37.9759 9.53809 38.3576 10.0939C38.525 10.3349 38.7058 10.5894 38.7594 10.6564C38.813 10.73 39.0272 11.0314 39.2281 11.326C39.429 11.6273 39.7504 12.0693 39.9312 12.317L40.2727 12.7657L41.4982 12.7858C42.5629 12.7992 42.7236 12.7858 42.6901 12.7054C42.6633 12.6452 42.2013 12.009 41.6589 11.2791C41.1098 10.5492 40.6143 9.8796 40.554 9.78585C40.5004 9.69211 40.3799 9.54479 40.2995 9.45104C40.2192 9.35729 40.0785 9.17649 39.9982 9.04257C39.9111 8.91534 39.6031 8.48008 39.3018 8.085C39.0004 7.68992 38.7594 7.32832 38.7594 7.27475C38.7594 7.22787 38.7996 7.14082 38.8464 7.09395C38.8933 7.04707 39.0473 6.85958 39.1946 6.67208C39.342 6.49128 39.6902 6.06942 39.9647 5.7346C40.2393 5.39979 40.5741 4.99131 40.708 4.8306C40.8419 4.6632 41.2839 4.1208 41.6924 3.62527C42.1008 3.12975 42.4156 2.70118 42.4022 2.6744C42.3821 2.64761 41.8665 2.62083 41.2504 2.62083H40.1254L39.8643 2.96904C39.7169 3.16323 39.4692 3.51813 39.3085 3.7525C39.1478 3.98687 38.9871 4.21454 38.9536 4.25472C38.7326 4.50918 37.2192 6.59842 37.2192 6.6453C37.2192 6.67878 37.159 6.70556 37.0853 6.70556C36.9514 6.70556 36.9514 6.65869 36.9514 4.70337C36.9514 2.94225 36.938 2.69449 36.8442 2.66101C36.784 2.64092 36.3487 2.62083 35.8733 2.62083H35.0095V7.71ZM43.8285 2.66101C43.7615 2.72797 43.7682 12.6117 43.8352 12.7188C43.882 12.7791 44.1164 12.7992 44.7927 12.7858L45.69 12.7657L45.7101 10.8372C45.7235 9.06265 45.7369 8.90864 45.8374 8.92873C45.9311 8.94882 46.7949 10.2345 47.0628 10.7568C47.103 10.8305 47.19 10.9778 47.2637 11.0916C47.3373 11.1988 47.4177 11.3394 47.4445 11.393C47.4712 11.4465 47.5784 11.6206 47.6788 11.768C47.7793 11.922 47.8663 12.076 47.873 12.1028C47.873 12.1362 47.9735 12.297 48.094 12.4644L48.315 12.7657L49.4333 12.7858C50.5448 12.7992 50.5515 12.7992 50.5114 12.6653C50.4712 12.5313 48.2212 9.11622 48.1342 9.04926C48.1074 9.02917 48.0471 8.94212 48.0003 8.85507C47.9266 8.70775 47.9333 8.67427 48.0672 8.56713C48.1476 8.50017 48.2614 8.4466 48.315 8.4466C48.7034 8.4466 49.5538 7.69661 49.8484 7.10064C50.1498 6.49128 50.21 6.25691 50.21 5.71451C50.21 4.2882 49.4935 3.29715 48.0672 2.75475C47.8061 2.65431 43.9222 2.56726 43.8285 2.66101ZM47.5784 4.469C48.4824 5.09176 48.5025 6.40423 47.6119 7.04707C47.3105 7.26805 47.2704 7.27475 46.6074 7.29484C46.1387 7.31492 45.8909 7.29484 45.824 7.24126C45.7436 7.1743 45.7235 6.89975 45.7235 5.7346C45.7235 4.95783 45.7436 4.2949 45.7704 4.27481C45.7905 4.24803 46.132 4.22794 46.5204 4.22794C47.2235 4.22794 47.2302 4.22794 47.5784 4.469Z" fill="white"/>
</svg>
