<svg width="200" height="26" viewBox="0 0 200 26" fill="none" xmlns="http://www.w3.org/2000/svg">
  <path d="M12.5 1C5.59651 1 0 6.59651 0 13.5C0 20.4035 5.59651 26 12.5 26C19.4035 26 25 20.4035 25 13.5C25 6.59651 19.4035 1 12.5 1ZM16.1725 8.16484C15.5784 8.16484 14.9804 8.16484 14.3865 8.16484C14.0105 8.1405 13.6227 8.42745 13.554 8.80337C13.5459 9.45408 13.5499 10.1045 13.5499 10.7552C14.4227 10.7593 15.2957 10.7552 16.1687 10.7593C16.1041 11.7007 15.987 12.6384 15.8496 13.5679C15.0777 13.576 14.3058 13.5679 13.534 13.572C13.5259 16.3482 13.538 19.1203 13.5299 21.8968C12.3821 21.9008 11.2386 21.8927 10.0908 21.9008C10.0706 19.1246 10.0908 16.3484 10.0787 13.572C9.52101 13.5679 8.95928 13.576 8.40161 13.5679C8.40566 12.6343 8.40161 11.701 8.40161 10.7715C8.95928 10.7633 9.52101 10.7715 10.0787 10.7674C10.0949 9.86219 10.0625 8.95293 10.0949 8.04773C10.1555 7.32427 10.4262 6.60107 10.9639 6.10398C11.6146 5.48572 12.5357 5.27558 13.4088 5.25125C14.3302 5.24314 15.2516 5.24719 16.1728 5.24719C16.1766 6.22109 16.1766 7.19094 16.1725 8.16484Z" fill="white"/>
</svg>
