<svg width="200" height="26" viewBox="0 0 200 26" fill="none" xmlns="http://www.w3.org/2000/svg">
<path d="M50.7571 7.20312H44.1809C42.5352 7.20312 41.1963 8.54205 41.1963 10.1877V16.8243C41.1963 18.4699 42.5352 19.8088 44.1809 19.8088H50.7571C52.4027 19.8088 53.7417 18.4699 53.7417 16.8243V10.1877C53.7417 8.54205 52.4027 7.20312 50.7571 7.20312ZM47.4815 17.4798C45.2508 17.4798 43.4361 15.6843 43.4361 13.4775C43.4361 11.2706 45.2511 9.47514 47.4815 9.47514C49.712 9.47514 51.5269 11.2706 51.5269 13.4775C51.5269 15.6843 49.7122 17.4798 47.4815 17.4798ZM51.5989 10.2632C51.0732 10.2632 50.6471 9.83712 50.6471 9.31138C50.6471 8.78565 51.0732 8.35954 51.5989 8.35954C52.1247 8.35954 52.5508 8.78565 52.5508 9.31138C52.5508 9.83712 52.1247 10.2632 51.5989 10.2632Z" fill="white"/>
<path d="M47.5 1C40.5965 1 35 6.59651 35 13.5C35 20.4035 40.5965 26 47.5 26C54.4035 26 60 20.4035 60 13.5C60 6.59651 54.4035 1 47.5 1ZM55.218 16.824C55.218 19.2838 53.2167 21.2849 50.7571 21.2849H44.1808C41.721 21.2849 39.7199 19.2836 39.7199 16.824V10.1874C39.7199 7.72757 41.7212 5.72654 44.1808 5.72654H50.7571C53.2169 5.72654 55.218 7.72783 55.218 10.1874V16.824Z" fill="white"/>
<path d="M47.4816 10.9482C46.0633 10.9482 44.9097 12.0826 44.9097 13.477C44.9097 14.8715 46.0633 16.0058 47.4816 16.0058C48.8998 16.0058 50.0534 14.8715 50.0534 13.477C50.0534 12.0826 48.8998 10.9482 47.4816 10.9482Z" fill="white"/>
</svg>
