<svg width="60" height="21" viewBox="0 0 60 21" fill="none" xmlns="http://www.w3.org/2000/svg">
<path fill-rule="evenodd" clip-rule="evenodd" d="M0 0H22.8995V20.3687H0V0Z" fill="white"/>
<path fill-rule="evenodd" clip-rule="evenodd" d="M2.19863 6.26432H6.34694C6.50671 6.26432 6.63712 6.39507 6.63712 6.55485V7.88253C6.63712 8.04231 6.50671 8.17272 6.34694 8.17272H5.48833V11.782H6.34728C6.50671 11.782 6.63746 11.9127 6.63781 12.0728V13.4005C6.63745 13.4774 6.60671 13.5511 6.55229 13.6054C6.49788 13.6598 6.42419 13.6904 6.34728 13.6907H2.19863C2.12173 13.6905 2.04802 13.6599 1.99364 13.6055C1.93926 13.5511 1.90863 13.4774 1.90845 13.4005V12.0728C1.90845 11.9127 2.03886 11.782 2.19863 11.782H3.11153V8.17238H2.19898C2.12204 8.1722 2.0483 8.14158 1.99386 8.08721C1.93942 8.03284 1.90872 7.95913 1.90845 7.88219V6.5545C1.90845 6.39473 2.03886 6.26432 2.19863 6.26432ZM17.6516 13.8146C15.538 13.8146 13.8139 12.5429 13.8139 10.0606C13.8139 7.57835 15.538 6.30631 17.6516 6.30631C19.7648 6.30631 21.4889 7.57835 21.4889 10.0606C21.4889 12.5429 19.7652 13.8146 17.6516 13.8146ZM18.7509 10.0606C18.7509 8.70257 18.5058 8.00714 17.6516 8.00714C16.7971 8.00714 16.5519 8.70291 16.5519 10.0606C16.5519 11.4184 16.7971 12.1145 17.6516 12.1145C18.5058 12.1141 18.7509 11.418 18.7509 10.0606ZM10.6086 9.08561C9.90565 8.88794 9.19111 8.8422 9.22183 8.28879C9.2331 8.08737 9.3898 7.86171 9.92716 7.86034C10.2627 7.85966 10.8254 7.97027 11.2613 8.24578C11.711 8.52982 12.0349 8.95486 12.3623 8.95486H13.165C13.4022 8.95486 13.5798 8.61175 13.5798 8.37414V6.8382C13.5798 6.56509 13.3957 6.47701 13.196 6.4794L12.4105 6.48896C11.8926 6.49544 12.1268 6.90478 11.8997 6.98944C11.3098 7.21032 11.3125 6.35649 9.73973 6.33567C7.96515 6.31245 6.91741 7.34654 6.9437 8.52982C6.97647 10.0197 8.10205 10.5649 9.49802 11.0203C10.1921 11.247 11.3327 11.3624 11.3016 11.9158C11.2904 12.1172 11.1336 12.3432 10.5963 12.3446C10.2607 12.3446 9.69808 12.2346 9.26212 11.9591C8.8125 11.6751 8.48817 11.2497 8.16111 11.2497H7.35849C7.12088 11.2497 6.9437 11.5932 6.9437 11.8304V13.3667C6.9437 13.6402 7.12771 13.7283 7.32743 13.7255L8.11298 13.7163C8.63088 13.7095 8.39702 13.3001 8.62405 13.2155C9.21398 12.9949 9.21091 13.8484 10.7837 13.8689C12.5586 13.8921 13.606 12.858 13.5801 11.6744C13.547 10.1846 12.4292 9.59805 10.6086 9.08561ZM16.497 3.81207C16.2816 4.06163 15.9702 4.29037 15.5831 4.48974C15.8589 4.87909 16.099 5.29262 16.3003 5.72525H15.9309C15.744 5.34397 15.5253 4.97909 15.2772 4.63449C15.0775 4.72087 14.8617 4.80075 14.6326 4.87245C14.3766 4.95267 14.1031 5.02368 13.815 5.08343C13.8768 5.25822 13.9355 5.43985 13.9905 5.62795L14.0184 5.72525H13.6723L13.6709 5.72047C13.6146 5.52721 13.5525 5.33571 13.4845 5.14625C12.8809 5.2487 12.2702 5.3036 11.658 5.31046V5.72525H11.3241V5.31046C10.7121 5.30377 10.1015 5.24887 9.49802 5.14625C9.42954 5.3374 9.36693 5.53061 9.31025 5.72559H8.96408C8.97295 5.69282 8.98251 5.66073 8.99207 5.6283C9.04704 5.44019 9.10576 5.25822 9.16789 5.08343C8.86484 5.02116 8.56544 4.94229 8.27104 4.84718C8.0794 4.78539 7.89085 4.71441 7.70603 4.63449C7.47091 4.96096 7.26212 5.3056 7.08162 5.66517L7.05158 5.72525H6.68219C6.88381 5.29271 7.12399 4.8792 7.3998 4.48974C7.013 4.29037 6.70165 4.06197 6.48623 3.81207C5.81764 4.35422 5.2404 5.00017 4.77652 5.72525H4.38357C5.8386 3.31636 8.48203 1.7002 11.4914 1.7002C14.5008 1.7002 17.1443 3.31636 18.5993 5.72525H18.2067C17.7425 5.0004 17.1653 4.3545 16.497 3.81207ZM9.34439 2.32973C9.4888 2.47312 9.6991 2.60148 9.95754 2.70595C10.3744 2.8746 10.9083 2.97599 11.4914 2.97599C12.0315 2.97599 12.5296 2.88928 12.9308 2.74248C13.2319 2.63255 13.476 2.49087 13.6385 2.32973C12.955 2.13752 12.2347 2.03442 11.4911 2.03442C10.7475 2.03442 10.0275 2.13752 9.34439 2.32973ZM9.29216 2.71994C9.18078 2.6395 9.08096 2.54416 8.99549 2.43659C8.18887 2.70433 7.43036 3.09955 6.74876 3.60723C6.94438 3.83085 7.23491 4.03773 7.60088 4.2197C8.09284 3.59187 8.66433 3.0808 9.29216 2.71994ZM10.2392 3.15079C10.1014 3.11364 9.96602 3.06838 9.83361 3.01525C9.76175 2.98622 9.69103 2.95445 9.62161 2.92C8.98866 3.25047 8.41068 3.74311 7.91429 4.36172C8.05904 4.4218 8.21267 4.47813 8.37449 4.53071C8.65614 4.62254 8.96203 4.70243 9.2867 4.76798C9.5564 4.08928 9.87936 3.53691 10.2392 3.15079ZM11.3241 3.30715C11.0899 3.30014 10.8565 3.27641 10.6257 3.23614C10.2477 3.57753 9.90531 4.12581 9.61956 4.82875C10.1497 4.91683 10.724 4.96872 11.3241 4.97691V3.30715ZM12.3569 3.23614C12.1259 3.27626 11.8924 3.29999 11.658 3.30715V4.97691C12.2293 4.97046 12.7992 4.92093 13.363 4.82875C13.0772 4.12616 12.7348 3.57753 12.3569 3.23614ZM13.3609 2.91966C13.2623 2.96916 13.1561 3.01423 13.0441 3.0552C12.9485 3.09002 12.8481 3.12211 12.7437 3.15079C13.1035 3.53691 13.4265 4.08928 13.6962 4.7673C13.9788 4.7108 14.2583 4.6397 14.5336 4.55427C14.7148 4.49798 14.8934 4.43362 15.0689 4.36138C14.5722 3.74277 13.9942 3.25013 13.3609 2.91966ZM13.9874 2.43693C13.9019 2.54458 13.8019 2.63993 13.6904 2.72029C14.3182 3.08148 14.89 3.59221 15.3813 4.22004C15.7473 4.03841 16.0378 3.83153 16.2338 3.60791C15.5524 3.1 14.794 2.70465 13.9874 2.43693ZM16.497 16.059C16.2816 15.8091 15.9702 15.5803 15.5831 15.381C15.8589 14.9918 16.099 14.5785 16.3003 14.1461H15.9309C15.744 14.5275 15.5253 14.8925 15.2772 15.2372C15.0666 15.1467 14.8515 15.0673 14.6326 14.9993C14.3636 14.9157 14.0908 14.8452 13.815 14.7879C13.8768 14.6132 13.9355 14.4319 13.9905 14.2438L14.0184 14.1465H13.6723L13.6709 14.1512C13.6146 14.3445 13.5524 14.536 13.4845 14.7255C12.8809 14.6228 12.2702 14.568 11.658 14.5616V14.1468H11.3241V14.5616C10.7121 14.568 10.1015 14.6228 9.49802 14.7255C9.42939 14.5345 9.36677 14.3414 9.31025 14.1465H8.96408C8.97295 14.1792 8.98251 14.211 8.99207 14.2438C9.04704 14.4319 9.10576 14.6138 9.16789 14.7886C8.84971 14.8545 8.54928 14.9341 8.27104 15.0245C8.07133 15.0891 7.88254 15.1604 7.70603 15.2372C7.47098 14.9106 7.26219 14.5658 7.08162 14.2062L7.05158 14.1461H6.68219C6.88381 14.5785 7.12399 14.9917 7.3998 15.381C7.013 15.5803 6.70165 15.8091 6.48623 16.059C5.81748 15.517 5.24021 14.871 4.77652 14.1458H4.38357C5.8386 16.5543 8.48203 18.1705 11.4914 18.1705C14.5008 18.1705 17.1443 16.5543 18.5993 14.1458H18.2067C17.7427 14.8708 17.1655 15.5167 16.497 16.059ZM9.34439 17.5413C9.4888 17.3979 9.6991 17.2699 9.95754 17.1651C10.3744 16.9964 10.9083 16.8957 11.4914 16.8957C12.0315 16.8957 12.5296 16.9824 12.9308 17.1286C13.2319 17.2385 13.476 17.3805 13.6385 17.5413C12.955 17.7339 12.2347 17.8366 11.4911 17.8366C10.7475 17.8366 10.0275 17.7332 9.34439 17.5413ZM9.29216 17.1511C9.1807 17.2314 9.08087 17.3268 8.99549 17.4345C8.1888 17.1667 7.43026 16.7714 6.74876 16.2635C6.94438 16.0402 7.23491 15.8333 7.60088 15.6513C8.09284 16.2795 8.66433 16.7906 9.29216 17.1511ZM10.2392 16.7203C10.1015 16.7573 9.96602 16.8024 9.83361 16.8554C9.76187 16.8848 9.69116 16.9165 9.62161 16.9507C8.98866 16.6206 8.41068 16.1279 7.91429 15.509C8.05904 15.4489 8.21267 15.3929 8.37449 15.3403C8.65614 15.2481 8.96203 15.1683 9.2867 15.1031C9.5564 15.7821 9.87936 16.3345 10.2392 16.7203ZM11.3241 16.5635C11.0814 16.5714 10.8469 16.5963 10.6257 16.6349C10.2477 16.2935 9.90531 15.7456 9.61956 15.0419C10.1833 14.9506 10.7531 14.9011 11.3241 14.8938V16.5635ZM12.3569 16.6349C12.1259 16.5948 11.8924 16.571 11.658 16.5635V14.8938C12.2585 14.9023 12.8324 14.9539 13.363 15.0419C13.0772 15.7449 12.7348 16.2935 12.3569 16.6349ZM13.3609 16.951C13.2579 16.9001 13.1521 16.855 13.0441 16.8158C12.9485 16.781 12.8481 16.7493 12.7437 16.7206C13.1035 16.3345 13.4265 15.7824 13.6962 15.1037C13.9925 15.1638 14.2724 15.2352 14.5336 15.3171C14.7231 15.3765 14.902 15.441 15.0689 15.5097C14.5722 16.1283 13.9942 16.6209 13.3609 16.951ZM13.9874 17.4345C13.902 17.3266 13.8021 17.2313 13.6904 17.1511C14.3182 16.7902 14.89 16.2788 15.3813 15.6513C15.7473 15.8333 16.0378 16.0402 16.2338 16.2635C15.5522 16.7711 14.7938 17.1664 13.9874 17.4345Z" fill="#333333"/>
<path fill-rule="evenodd" clip-rule="evenodd" d="M28.4249 6.10958H27.9698V2.96669H28.4249V6.10958ZM29.3791 6.10958H28.9516V3.73517H29.362V4.00556C29.4511 3.8987 29.5491 3.82052 29.6566 3.77102C29.7723 3.71967 29.8978 3.69427 30.0243 3.69659C30.3353 3.69659 30.574 3.78809 30.7402 3.97074C30.9065 4.15338 30.9894 4.41557 30.9894 4.75663V6.10924H30.5603V4.84949C30.5603 4.59754 30.5135 4.41045 30.4203 4.28892C30.3264 4.16738 30.1814 4.10661 29.9854 4.10661C29.7724 4.10661 29.6184 4.1783 29.5228 4.32135C29.4269 4.46474 29.3794 4.70064 29.3794 5.03077V6.10958H29.3791ZM31.6337 6.10958V4.12334H31.2977V3.73517H31.6337V2.96669H32.059V3.73517H32.3956V4.12334H32.059V6.10958H31.6337ZM34.5516 4.6962C34.4983 4.50058 34.4061 4.34866 34.2747 4.2418C34.1439 4.13426 33.9879 4.08032 33.8053 4.08032C33.6178 4.08032 33.456 4.13563 33.3178 4.24522C33.1812 4.35583 33.0856 4.50604 33.0344 4.69586H34.5516V4.6962ZM33.0214 5.08027C33.0573 5.27828 33.1474 5.43976 33.2901 5.56266C33.4335 5.68557 33.6035 5.74702 33.8008 5.74702C33.9415 5.74702 34.0695 5.71288 34.1863 5.64528C34.3017 5.57837 34.3935 5.48244 34.4631 5.35885H34.9445C34.8353 5.62207 34.6816 5.82349 34.4857 5.96312C34.289 6.10241 34.061 6.17206 33.8008 6.17206C33.6355 6.17413 33.4716 6.14266 33.3188 6.07954C33.1697 6.0146 33.0354 5.91992 32.9241 5.8013C32.6996 5.56284 32.5734 5.24837 32.5708 4.92084C32.5708 4.75356 32.5995 4.59754 32.6561 4.45244C32.7128 4.30735 32.7968 4.17489 32.9074 4.0554C33.0248 3.92567 33.158 3.82837 33.3062 3.76283C33.455 3.69728 33.6168 3.66484 33.7923 3.66484C34.0002 3.66484 34.1945 3.71366 34.3737 3.81062C34.5529 3.90792 34.7004 4.04345 34.8178 4.21722C34.8858 4.32545 34.938 4.44323 34.9705 4.57228C35.0039 4.70132 35.02 4.84881 35.02 5.01336V5.08061H33.0214V5.08027ZM35.8233 6.10958H35.3958V3.73517H35.7973V4.00931C35.868 3.9045 35.9492 3.82667 36.0407 3.7758C36.1322 3.72493 36.2381 3.6983 36.3589 3.69694V4.14348C36.1674 4.15816 36.0301 4.21415 35.9475 4.31281C35.8649 4.41148 35.8236 4.56988 35.8236 4.78872V6.10958H35.8233ZM37.096 6.10958H36.6686V3.73517H37.0793V4.00556C37.168 3.8987 37.266 3.82052 37.3739 3.77102C37.4894 3.71962 37.6148 3.69422 37.7412 3.69659C38.0519 3.69659 38.2905 3.78809 38.4575 3.97074C38.6227 4.15338 38.7063 4.41557 38.7063 4.75663V6.10924H38.2769V4.84949C38.2769 4.59754 38.2301 4.41045 38.1369 4.28892C38.0437 4.16738 37.8983 4.10661 37.7023 4.10661C37.4896 4.10661 37.3356 4.1783 37.2397 4.32135C37.1445 4.46474 37.0963 4.70064 37.0963 5.03077V6.10958H37.096ZM39.5284 4.90718C39.5284 5.14719 39.6083 5.34827 39.7671 5.51146C39.9258 5.67464 40.1197 5.75521 40.3505 5.75521C40.5605 5.75521 40.7459 5.67328 40.906 5.51043C41.0661 5.3469 41.1467 5.15606 41.1467 4.93723C41.1467 4.7044 41.0668 4.50468 40.9087 4.33842C40.7493 4.1725 40.5605 4.08954 40.342 4.08954C40.1173 4.08954 39.9258 4.16806 39.7671 4.32647C39.6083 4.48488 39.5284 4.67879 39.5284 4.90718ZM41.1248 6.10958V5.81769C41.0218 5.92725 40.8978 6.01491 40.7602 6.07544C40.625 6.13348 40.4816 6.16318 40.3287 6.16318C39.9719 6.16318 39.6759 6.04369 39.4397 5.80608C39.2038 5.56813 39.0856 5.26975 39.0856 4.91162C39.0856 4.74434 39.115 4.58593 39.1744 4.4364C39.2331 4.28687 39.3171 4.15475 39.427 4.0414C39.5465 3.91611 39.6763 3.82393 39.8179 3.76419C39.9721 3.70217 40.1372 3.67165 40.3034 3.6744C40.4662 3.6744 40.6154 3.70308 40.7513 3.76043C40.8886 3.81779 41.0135 3.90553 41.1248 4.02195V3.73483H41.557V6.10924H41.1248V6.10958ZM42.1975 6.10958V4.12334H41.8609V3.73517H42.1975V2.96669H42.6228V3.73517H42.9595V4.12334H42.6228V6.10958H42.1975ZM43.6911 3.45659H43.2677V2.96669H43.6911V3.45659ZM43.2677 6.10958V3.73517H43.6911V6.10958H43.2677ZM44.5053 4.92016C44.5053 5.15743 44.5801 5.35544 44.7306 5.51384C44.8805 5.67225 45.0679 5.75111 45.2926 5.75111C45.5128 5.75111 45.6968 5.67157 45.8453 5.51248C45.9948 5.35339 46.0686 5.15435 46.0686 4.91572C46.0686 4.67538 45.9945 4.47668 45.8453 4.31964C45.6964 4.16294 45.5111 4.08476 45.2878 4.08476C45.0659 4.08476 44.8805 4.16431 44.7303 4.3234C44.5801 4.48283 44.5053 4.68152 44.5053 4.92016ZM44.0625 4.92494C44.0625 4.75629 44.0912 4.59925 44.1479 4.45347C44.2048 4.30703 44.29 4.17317 44.3984 4.0595C44.5179 3.93147 44.6531 3.83247 44.8027 3.76419C44.9485 3.69566 45.1076 3.66011 45.2687 3.66006C45.4414 3.66006 45.6015 3.69113 45.748 3.75293C45.8968 3.81472 46.03 3.90621 46.1495 4.02707C46.2655 4.14656 46.3557 4.28141 46.4181 4.43094C46.481 4.58047 46.5113 4.73512 46.5113 4.89524C46.5113 5.0574 46.482 5.21547 46.4239 5.36978C46.3652 5.52375 46.284 5.6586 46.1792 5.77331C46.0583 5.90611 45.9224 6.00614 45.7726 6.07476C45.6227 6.14338 45.4619 6.17718 45.2926 6.17718C45.1185 6.17718 44.958 6.14645 44.8112 6.08363C44.6619 6.01904 44.5273 5.92459 44.4159 5.80608C44.3043 5.68817 44.216 5.5502 44.1557 5.39948C44.0943 5.24879 44.0627 5.08765 44.0625 4.92494ZM47.3065 6.10958H46.879V3.73517H47.2897V4.00556C47.3792 3.8987 47.4765 3.82052 47.5844 3.77102C47.6999 3.7197 47.8253 3.69429 47.9517 3.69659C48.2624 3.69659 48.501 3.78809 48.6679 3.97074C48.8339 4.15338 48.9172 4.41557 48.9172 4.75663V6.10924H48.487V4.84949C48.487 4.59754 48.4409 4.41045 48.3477 4.28892C48.2538 4.16738 48.1091 4.10661 47.9131 4.10661C47.6997 4.10661 47.5465 4.1783 47.4505 4.32135C47.3546 4.46474 47.3065 4.70064 47.3065 5.03077V6.10958ZM49.7396 4.90718C49.7396 5.14719 49.8188 5.34827 49.9782 5.51146C50.0531 5.59053 50.1437 5.65306 50.2442 5.69504C50.3446 5.73702 50.4528 5.75752 50.5617 5.75521C50.7716 5.75521 50.9563 5.67328 51.1171 5.51043C51.2766 5.3469 51.3571 5.15606 51.3571 4.93723C51.359 4.82664 51.339 4.71677 51.2981 4.61399C51.2573 4.5112 51.1965 4.41754 51.1192 4.33842C50.9597 4.1725 50.7716 4.08954 50.5525 4.08954C50.3278 4.08954 50.1363 4.16806 49.9782 4.32647C49.9008 4.40177 49.8397 4.49216 49.7986 4.59206C49.7576 4.69195 49.7375 4.79921 49.7396 4.90718ZM51.336 6.10958V5.81769C51.2267 5.93137 51.1045 6.01741 50.9707 6.07544C50.8346 6.13395 50.6879 6.16382 50.5398 6.16318C50.1831 6.16318 49.8871 6.04369 49.6505 5.80608C49.4146 5.56813 49.2971 5.26975 49.2971 4.91162C49.2971 4.74434 49.3265 4.58593 49.3852 4.4364C49.4446 4.28687 49.5279 4.15475 49.6379 4.0414C49.7573 3.91611 49.8878 3.82393 50.0291 3.76419C50.183 3.70211 50.3479 3.67158 50.5139 3.6744C50.6767 3.6744 50.8259 3.70308 50.9625 3.76043C51.099 3.81779 51.224 3.90553 51.336 4.02195V3.73483H51.7675V6.10924H51.336V6.10958ZM52.2642 6.10958V2.96669H52.6869V6.10958H52.2642ZM28.3026 10.136C28.3026 10.2999 28.33 10.4556 28.3842 10.6013C28.4389 10.7468 28.5177 10.8734 28.6198 10.9793C28.7273 11.0926 28.852 11.1793 28.9926 11.2414C29.1336 11.3036 29.2777 11.334 29.4245 11.334C29.7495 11.334 30.0212 11.2179 30.2401 10.9878C30.4589 10.7563 30.5682 10.4695 30.5682 10.1271C30.5682 9.98204 30.5415 9.84274 30.4896 9.71165C30.4356 9.5775 30.3576 9.4543 30.2595 9.34806C30.1521 9.22869 30.0217 9.1322 29.8761 9.06436C29.7339 9.00172 29.5799 8.97029 29.4245 8.97219C29.2763 8.97219 29.135 9.00018 29.0015 9.05617C28.8673 9.11216 28.7489 9.19375 28.6458 9.29993C28.5375 9.41147 28.4517 9.54279 28.3931 9.68673C28.333 9.83353 28.3026 9.98306 28.3026 10.136ZM27.8274 10.1322C27.8274 9.91171 27.8694 9.70346 27.9524 9.50613C28.0378 9.30562 28.1626 9.12429 28.3194 8.97287C28.4651 8.82765 28.6378 8.71226 28.8277 8.63318C29.0184 8.55501 29.2228 8.51567 29.4289 8.51745C29.6484 8.51745 29.8522 8.55568 30.0404 8.63318C30.2328 8.71317 30.4077 8.83008 30.5552 8.97731C30.7153 9.13435 30.8351 9.30949 30.9154 9.50408C30.9959 9.69868 31.0365 9.90795 31.0365 10.1326C31.0365 10.3545 31.0017 10.5607 30.9324 10.7481C30.8636 10.9358 30.7582 11.108 30.6224 11.2548C30.4589 11.4309 30.2776 11.562 30.0769 11.6515C29.8712 11.7419 29.6488 11.7876 29.4241 11.7856C29.1993 11.7877 28.9767 11.7413 28.7714 11.6498C28.5657 11.555 28.3828 11.4171 28.2351 11.2455C28.1014 11.0984 27.998 10.9265 27.9305 10.7396C27.8611 10.5447 27.8262 10.3392 27.8274 10.1322ZM31.8597 11.7225H31.4322V9.34806H31.8337V9.62221C31.9044 9.5174 31.9856 9.43956 32.0771 9.38869C32.1686 9.33782 32.2744 9.31119 32.3953 9.30983V9.75637C32.2038 9.77105 32.0665 9.82704 31.9839 9.92571C31.9006 10.0244 31.86 10.1828 31.86 10.4016V11.7225H31.8597ZM32.7398 11.9123H33.1952C33.2611 12.0229 33.3471 12.1076 33.4553 12.1656C33.5619 12.2236 33.6854 12.2537 33.8227 12.2537C34.0634 12.2537 34.2566 12.181 34.4034 12.0362C34.5509 11.8915 34.6236 11.6996 34.6236 11.4606V11.4306C34.5203 11.54 34.3961 11.6275 34.2583 11.688C34.1224 11.747 33.9756 11.777 33.8275 11.7761C33.4707 11.7761 33.1747 11.6566 32.9381 11.4186C32.7029 11.1807 32.5848 10.882 32.5848 10.5245C32.5848 10.3572 32.6141 10.1985 32.6729 10.049C32.7323 9.89942 32.8162 9.76764 32.9255 9.65395C33.045 9.52866 33.1754 9.43649 33.3167 9.37674C33.4707 9.31466 33.6355 9.28413 33.8015 9.28695C33.963 9.28695 34.1115 9.31563 34.2494 9.37298C34.386 9.43034 34.5126 9.51808 34.628 9.63449V9.34738H35.0555V11.3282C35.0555 11.7416 34.9483 12.0649 34.7342 12.2991C34.5195 12.5333 34.2242 12.6497 33.8493 12.6497C33.5772 12.6497 33.3444 12.5855 33.1518 12.4572C32.9593 12.3285 32.822 12.1472 32.7398 11.9123ZM33.0272 10.5201C33.0272 10.7601 33.1064 10.9615 33.2659 11.1243C33.3407 11.2035 33.4313 11.266 33.5318 11.3081C33.6323 11.3501 33.7404 11.3707 33.8493 11.3684C34.0593 11.3684 34.244 11.2865 34.4048 11.1237C34.5656 10.9601 34.6448 10.769 34.6448 10.5501C34.6448 10.3173 34.5662 10.1179 34.4068 9.95131C34.2481 9.78573 34.0593 9.70243 33.8408 9.70243C33.6168 9.70243 33.4239 9.78095 33.2659 9.93936C33.1885 10.0147 33.1274 10.1051 33.0864 10.205C33.0453 10.3049 33.0252 10.4121 33.0272 10.5201ZM35.8738 10.5201C35.8738 10.7601 35.9537 10.9615 36.1124 11.1243C36.2712 11.2872 36.4651 11.3684 36.6959 11.3684C36.9058 11.3684 37.0905 11.2865 37.2513 11.1237C37.4114 10.9601 37.4913 10.769 37.4913 10.5501C37.4913 10.3173 37.4121 10.1179 37.2541 9.95131C37.0946 9.78573 36.9058 9.70243 36.6873 9.70243C36.4627 9.70243 36.2712 9.78095 36.1124 9.93936C36.0351 10.0147 35.9741 10.1052 35.933 10.205C35.892 10.3049 35.8718 10.4121 35.8738 10.5201ZM37.4702 11.7225V11.4309C37.3668 11.5403 37.2426 11.6278 37.1049 11.6883C36.9689 11.7473 36.8222 11.7773 36.674 11.7764C36.3173 11.7764 36.0213 11.6569 35.7847 11.419C35.5495 11.181 35.4313 10.8823 35.4313 10.5249C35.4313 10.3576 35.4607 10.1988 35.5201 10.0493C35.5788 9.89976 35.6628 9.76798 35.7727 9.65429C35.8922 9.529 36.022 9.43683 36.1636 9.37708C36.3176 9.31507 36.4824 9.28454 36.6484 9.28729C36.8119 9.28729 36.9611 9.31597 37.097 9.37333C37.2343 9.43068 37.3585 9.51842 37.4705 9.63484V9.34772H37.9027V11.7221H37.4702V11.7225ZM38.8255 11.7225H38.3981V9.34806H38.8088V9.61845C38.8982 9.51193 38.9955 9.43341 39.1034 9.38425C39.2189 9.33285 39.3443 9.30745 39.4707 9.30983C39.7814 9.30983 40.02 9.40132 40.187 9.58397C40.3529 9.76662 40.4362 10.0288 40.4362 10.3702V11.7225H40.006V10.4631C40.006 10.2111 39.96 10.0237 39.8661 9.90215C39.7729 9.78061 39.6274 9.72018 39.4315 9.72018C39.2188 9.72018 39.0648 9.79154 38.9692 9.93458C38.8733 10.0783 38.8252 10.3142 38.8252 10.6443V11.7225H38.8255ZM41.3593 9.06948H40.9367V8.57958H41.3593V9.06948ZM40.9367 11.7225V9.34806H41.3593V11.7225H40.9367ZM43.3005 11.7225H41.6601V11.377L42.8062 9.73623H41.798V9.34806H43.2356V9.78642L42.1647 11.321H43.3002V11.7225H43.3005ZM43.972 10.5201C43.972 10.7601 44.0512 10.9615 44.2107 11.1243C44.2855 11.2035 44.3761 11.266 44.4766 11.3081C44.5771 11.3501 44.6852 11.3707 44.7941 11.3684C45.0041 11.3684 45.1888 11.2865 45.3496 11.1237C45.5097 10.9601 45.5896 10.769 45.5896 10.5501C45.5896 10.3173 45.5104 10.1179 45.3516 9.95131C45.1922 9.78573 45.0041 9.70243 44.7856 9.70243C44.561 9.70243 44.3687 9.78095 44.2107 9.93936C44.1333 10.0147 44.0721 10.1051 44.0311 10.2049C43.99 10.3048 43.9699 10.4121 43.972 10.5201ZM45.5681 11.7225V11.4309C45.4588 11.5443 45.3366 11.6303 45.2028 11.6883C45.0668 11.7473 44.9201 11.7773 44.7719 11.7764C44.4152 11.7764 44.1192 11.6569 43.8826 11.419C43.6474 11.181 43.5293 10.8823 43.5293 10.5249C43.5293 10.3576 43.5586 10.1988 43.6173 10.0493C43.6767 9.89976 43.7607 9.76798 43.87 9.65429C43.9895 9.529 44.1199 9.43683 44.2612 9.37708C44.4152 9.315 44.58 9.28447 44.746 9.28729C44.9088 9.28729 45.058 9.31597 45.1946 9.37333C45.3311 9.43068 45.4561 9.51842 45.5681 9.63484V9.34772H45.9996V11.7221H45.5681V11.7225ZM46.6411 11.7225V9.73657H46.3045V9.3484H46.6411V8.57992H47.0658V9.3484H47.4024V9.73657H47.0658V11.7225H46.6411ZM48.134 9.06948H47.7114V8.57958H48.134V9.06948ZM47.7114 11.7225V9.34806H48.134V11.7225H47.7114ZM48.9482 10.5334C48.9482 10.7707 49.0237 10.9687 49.1736 11.1267C49.3241 11.2855 49.5109 11.364 49.7355 11.364C49.956 11.364 50.1404 11.2848 50.2889 11.1254C50.4377 10.9666 50.5122 10.7672 50.5122 10.5286C50.5122 10.2886 50.4374 10.0899 50.2889 9.93253C50.14 9.77583 49.9543 9.69765 49.7314 9.69765C49.5095 9.69765 49.3241 9.7772 49.1732 9.93629C49.0237 10.0957 48.9482 10.2948 48.9482 10.5334ZM48.5054 10.5382C48.5054 10.3695 48.5341 10.2121 48.5908 10.066C48.6475 9.91956 48.7314 9.78846 48.8421 9.67205C48.9615 9.54402 49.0961 9.44502 49.2456 9.37674C49.3917 9.30835 49.551 9.27292 49.7123 9.27296C49.8843 9.27296 50.0445 9.30368 50.1916 9.36582C50.3422 9.42947 50.4785 9.52269 50.5924 9.63996C50.7092 9.7591 50.7986 9.89396 50.8611 10.0438C50.9239 10.1934 50.955 10.3477 50.955 10.5078C50.955 10.6699 50.9256 10.8284 50.8669 10.9827C50.8088 11.1366 50.7269 11.2715 50.6221 11.3862C50.5012 11.519 50.366 11.619 50.2155 11.6876C50.0656 11.7563 49.9048 11.7904 49.7355 11.7904C49.5705 11.7922 49.407 11.7602 49.2548 11.6965C49.1055 11.6321 48.9709 11.5378 48.8595 11.4193C48.634 11.1811 48.5074 10.8662 48.5054 10.5382ZM51.7501 11.7225H51.3226V9.34806H51.7327V9.61845C51.8221 9.51193 51.9201 9.43341 52.0273 9.38425C52.1345 9.33509 52.2574 9.30983 52.3953 9.30983C52.706 9.30983 52.9446 9.40132 53.1116 9.58397C53.2768 9.76662 53.3604 10.0288 53.3604 10.3702V11.7225H52.931V10.4631C52.931 10.2111 52.8842 10.0237 52.791 9.90215C52.6978 9.78061 52.5523 9.72018 52.3564 9.72018C52.1437 9.72018 51.9897 9.79154 51.8938 9.93458C51.7985 10.0783 51.7504 10.3142 51.7504 10.6443V11.7225H51.7501ZM55.6693 11.7225H55.2439V9.7195H54.9612V9.3484H55.2306V9.27705C55.2306 9.03466 55.2985 8.85133 55.4341 8.72809C55.5693 8.60519 55.7714 8.54373 56.0407 8.54373V8.93873H56.0035C55.8769 8.93873 55.7867 8.96741 55.7321 9.02476C55.6775 9.08212 55.6502 9.17873 55.6502 9.31358V9.3484H56.0411V9.7195H55.6696V11.7225H55.6693ZM56.6576 10.5334C56.6576 10.7707 56.7331 10.9687 56.883 11.1267C57.0335 11.2855 57.2209 11.364 57.4456 11.364C57.5494 11.3662 57.6526 11.3461 57.7479 11.3049C57.8433 11.2637 57.9287 11.2025 57.9983 11.1254C58.1478 10.9666 58.2216 10.7672 58.2216 10.5286C58.2216 10.2886 58.1475 10.0899 57.9983 9.93253C57.8494 9.77583 57.6641 9.69765 57.4408 9.69765C57.2189 9.69765 57.0335 9.7772 56.8826 9.93629C56.7331 10.0957 56.6576 10.2948 56.6576 10.5334ZM56.2148 10.5382C56.2148 10.3695 56.2442 10.2121 56.3009 10.066C56.3578 9.91957 56.443 9.78573 56.5515 9.67205C56.6709 9.54402 56.8061 9.44502 56.9557 9.37674C57.1015 9.30832 57.2606 9.27288 57.4217 9.27296C57.5944 9.27296 57.7545 9.30368 57.9017 9.36582C58.0498 9.42761 58.1823 9.5191 58.3025 9.63996C58.4186 9.7591 58.5087 9.89396 58.5712 10.0438C58.634 10.1934 58.6644 10.3477 58.6644 10.5078C58.6644 10.6699 58.635 10.8284 58.577 10.9827C58.5182 11.1366 58.437 11.2715 58.3322 11.3862C58.2186 11.5133 58.0802 11.6159 57.9256 11.6876C57.775 11.7563 57.6149 11.7904 57.4456 11.7904C57.2715 11.7904 57.111 11.759 56.9642 11.6965C56.8149 11.6321 56.6803 11.5378 56.5689 11.4193C56.4583 11.3026 56.3715 11.1674 56.3087 11.0127C56.2459 10.8581 56.2148 10.699 56.2148 10.5382ZM59.4643 11.7225H59.0368V9.34806H59.4383V9.62221C59.509 9.5174 59.5902 9.43956 59.6817 9.38869C59.7732 9.33782 59.8791 9.31119 59.9999 9.30983V9.75637C59.8084 9.77105 59.6718 9.82704 59.5892 9.92571C59.5059 10.0244 59.4646 10.1828 59.4646 10.4016V11.7225H59.4643ZM27.8039 16.4293H28.2122C28.2193 16.5921 28.2675 16.7219 28.3562 16.8188C28.4454 16.9154 28.5621 16.9643 28.7041 16.9643C28.8608 16.9643 28.9861 16.9154 29.0807 16.8188C29.1749 16.7215 29.2224 16.5915 29.2224 16.4286C29.2224 16.2866 29.1875 16.176 29.1182 16.0985C29.05 16.0203 28.9049 15.9486 28.6843 15.8803C28.6648 15.8755 28.6453 15.8704 28.6259 15.865C28.3627 15.795 28.1722 15.6789 28.0545 15.5181C28.0024 15.4498 27.9618 15.3735 27.9343 15.2921C27.9075 15.2097 27.8941 15.1234 27.8947 15.0367C27.8947 14.7674 27.9742 14.5499 28.134 14.3833C28.2941 14.2181 28.503 14.1344 28.7625 14.1344C29.0029 14.1344 29.1964 14.2085 29.3436 14.357C29.4921 14.5059 29.5737 14.7104 29.589 14.9698H29.164C29.1565 14.8445 29.1145 14.7431 29.0377 14.6656C28.9997 14.6275 28.9543 14.5976 28.9042 14.5777C28.8542 14.5579 28.8006 14.5485 28.7468 14.5503C28.6215 14.5503 28.5198 14.5929 28.4419 14.6783C28.3631 14.7643 28.3238 14.8749 28.3238 15.0098C28.3238 15.0579 28.3313 15.102 28.3453 15.1439C28.3597 15.1859 28.3822 15.2245 28.4122 15.2607C28.474 15.3341 28.6065 15.3973 28.8093 15.4509C28.9028 15.4748 28.9749 15.4963 29.025 15.5137C29.2326 15.5912 29.3897 15.7045 29.4972 15.8523C29.6041 16.0005 29.658 16.1784 29.658 16.3856C29.658 16.6891 29.572 16.9335 29.3985 17.1196C29.2261 17.305 28.997 17.3975 28.7127 17.3975C28.4443 17.3975 28.2272 17.3081 28.0592 17.1309C27.8923 16.954 27.8069 16.7198 27.8039 16.4293ZM30.193 17.3354V15.3498H29.8567V14.961H30.193V14.1928H30.6183V14.961H30.955V15.3498H30.6183V17.3354H30.193ZM31.5848 16.1333C31.5848 16.3733 31.6647 16.5747 31.8241 16.7376C31.899 16.8167 31.9896 16.8793 32.0901 16.9213C32.1905 16.9634 32.2987 16.9839 32.4076 16.9817C32.6169 16.9817 32.8022 16.8997 32.963 16.7369C33.1225 16.573 33.203 16.3829 33.203 16.1634C33.203 15.9305 33.1238 15.7311 32.9651 15.5645C32.8057 15.3986 32.6169 15.3157 32.3984 15.3157C32.1737 15.3157 31.9822 15.3942 31.8241 15.5529C31.7466 15.6281 31.6854 15.7184 31.6443 15.8183C31.6031 15.9181 31.5829 16.0253 31.5848 16.1333ZM33.1819 17.3354V17.0438C33.0726 17.1572 32.9504 17.2432 32.8166 17.3012C32.6804 17.3602 32.5335 17.3902 32.3851 17.3893C32.029 17.3893 31.733 17.2698 31.4961 17.0319C31.2602 16.7939 31.142 16.4959 31.142 16.1377C31.142 15.9705 31.1721 15.8117 31.2308 15.6622C31.2895 15.5126 31.3735 15.3809 31.4834 15.2675C31.6029 15.1422 31.7333 15.0501 31.8747 14.9903C32.0287 14.9285 32.1935 14.8981 32.3595 14.9009C32.5223 14.9009 32.6715 14.9295 32.8081 14.9869C32.9446 15.0443 33.0696 15.1323 33.1815 15.2484V14.961H33.6131V17.3354H33.1819ZM34.5376 17.3354H34.1101V14.961H34.5202V15.2317C34.6096 15.1252 34.7076 15.0463 34.8148 14.9968C34.922 14.9473 35.0449 14.9227 35.1828 14.9227C35.4935 14.9227 35.7321 15.0142 35.8984 15.1969C36.0646 15.3795 36.1476 15.6417 36.1476 15.9831V17.3354H35.7181V16.076C35.7181 15.824 35.6713 15.6366 35.5781 15.515C35.4849 15.3935 35.3395 15.3331 35.1435 15.3331C34.9309 15.3331 34.7769 15.4051 34.6809 15.5478C34.585 15.6912 34.5376 15.9271 34.5376 16.2572V17.3354ZM36.97 16.1333C36.97 16.3733 37.0492 16.5747 37.2086 16.7376C37.2835 16.8167 37.3741 16.8793 37.4746 16.9213C37.575 16.9634 37.6832 16.9839 37.7921 16.9817C38.0021 16.9817 38.1867 16.8997 38.3475 16.7369C38.5083 16.573 38.5875 16.3829 38.5875 16.1634C38.5875 15.9305 38.509 15.7311 38.3496 15.5645C38.1908 15.3986 38.0021 15.3157 37.7836 15.3157C37.5596 15.3157 37.3667 15.3942 37.2086 15.5529C37.1312 15.6281 37.07 15.7184 37.0289 15.8183C36.9879 15.9181 36.9678 16.0254 36.97 16.1333ZM38.5664 17.3354V17.0438C38.4631 17.1532 38.3388 17.2407 38.2011 17.3012C38.0652 17.3602 37.9184 17.3902 37.7702 17.3893C37.4135 17.3893 37.1175 17.2698 36.8809 17.0319C36.6457 16.7939 36.5276 16.4959 36.5276 16.1377C36.5276 15.9705 36.5569 15.8117 36.6163 15.6622C36.675 15.5126 36.759 15.3809 36.8683 15.2675C36.9878 15.1422 37.1182 15.0501 37.2595 14.9903C37.4135 14.9285 37.5784 14.8981 37.7443 14.9009C37.9058 14.9009 38.0543 14.9295 38.1922 14.9869C38.3294 15.0443 38.4561 15.1323 38.5708 15.2484V14.1928H38.9982V17.3354H38.5664ZM39.8166 16.1333C39.8166 16.3733 39.8965 16.5747 40.0552 16.7376C40.214 16.9004 40.4079 16.9817 40.6387 16.9817C40.8486 16.9817 41.0333 16.8997 41.1941 16.7369C41.3542 16.573 41.4341 16.3829 41.4341 16.1634C41.4341 15.9305 41.3549 15.7311 41.1962 15.5645C41.0374 15.3986 40.8486 15.3157 40.6301 15.3157C40.4055 15.3157 40.214 15.3942 40.0552 15.5529C39.9779 15.6282 39.9168 15.7186 39.8757 15.8184C39.8347 15.9182 39.8146 16.0254 39.8166 16.1333ZM41.4136 17.3354V17.0438C41.3044 17.1572 41.1815 17.2432 41.0476 17.3012C40.9117 17.3602 40.765 17.3902 40.6168 17.3893C40.26 17.3893 39.9641 17.2698 39.7275 17.0319C39.4922 16.7939 39.3741 16.4959 39.3741 16.1377C39.3741 15.9705 39.4035 15.8117 39.4629 15.6622C39.5216 15.5126 39.6056 15.3809 39.7155 15.2675C39.835 15.1422 39.9647 15.0501 40.1064 14.9903C40.2605 14.9286 40.4253 14.8982 40.5912 14.9009C40.754 14.9009 40.9039 14.9295 41.0398 14.9869C41.177 15.0443 41.3013 15.1323 41.414 15.2484V14.961H41.8455V17.3354H41.4136ZM42.7731 17.3354H42.3456V14.961H42.7471V15.2351C42.8178 15.1303 42.899 15.0524 42.9905 15.0016C43.082 14.9507 43.1879 14.9241 43.3087 14.9231V15.3693C43.1172 15.3839 42.9799 15.4399 42.898 15.5393C42.8147 15.6373 42.7734 15.796 42.7734 16.0148V17.3354H42.7731ZM43.9406 16.1333C43.9406 16.3733 44.0205 16.5747 44.1793 16.7376C44.338 16.9004 44.5319 16.9817 44.7627 16.9817C44.9727 16.9817 45.1574 16.8997 45.3182 16.7369C45.479 16.573 45.5582 16.3829 45.5582 16.1634C45.5602 16.0528 45.5402 15.943 45.4995 15.8402C45.4588 15.7374 45.3981 15.6437 45.3209 15.5645C45.1615 15.3986 44.9727 15.3157 44.7542 15.3157C44.5302 15.3157 44.338 15.3942 44.1793 15.5529C44.1019 15.6282 44.0408 15.7186 43.9998 15.8184C43.9587 15.9182 43.9386 16.0254 43.9406 16.1333ZM45.537 17.3354V17.0438C45.4339 17.1532 45.3099 17.2407 45.1724 17.3012C45.0362 17.3602 44.8893 17.3902 44.7409 17.3893C44.3841 17.3893 44.0881 17.2698 43.8515 17.0319C43.6163 16.7939 43.4982 16.4959 43.4982 16.1377C43.4982 15.9705 43.5275 15.8117 43.5869 15.6622C43.6457 15.5126 43.7297 15.3809 43.8396 15.2675C43.9591 15.1422 44.0888 15.0501 44.2305 14.9903C44.3845 14.9286 44.5493 14.8982 44.7153 14.9009C44.8767 14.9009 45.0259 14.9295 45.1632 14.9869C45.3004 15.0443 45.4271 15.1323 45.5418 15.2484V14.1928H45.9692V17.3354H45.537ZM46.8886 14.6831H46.4659V14.1928H46.8886V14.6831ZM46.4656 17.3354V14.961H46.8882V17.3354H46.4656ZM48.8294 17.3354H47.189V16.9899L48.3351 15.3495H47.3269V14.9606H48.7646V15.3993L47.6936 16.9335H48.8291V17.3354H48.8294ZM49.5003 16.1333C49.5003 16.3733 49.5802 16.5747 49.7396 16.7376C49.8144 16.8167 49.905 16.8793 50.0055 16.9213C50.106 16.9634 50.2141 16.9839 50.323 16.9817C50.5323 16.9817 50.7177 16.8997 50.8785 16.7369C51.0386 16.573 51.1185 16.3829 51.1185 16.1634C51.1185 15.9305 51.0393 15.7311 50.8805 15.5645C50.7211 15.3986 50.5323 15.3157 50.3138 15.3157C50.0892 15.3157 49.8977 15.3942 49.7396 15.5529C49.662 15.6281 49.6007 15.7184 49.5596 15.8182C49.5184 15.9181 49.4982 16.0253 49.5003 16.1333ZM51.0973 17.3354V17.0438C50.9881 17.1572 50.8659 17.2432 50.732 17.3012C50.5959 17.3602 50.4489 17.3902 50.3005 17.3893C49.9444 17.3893 49.6484 17.2698 49.4115 17.0319C49.1756 16.7939 49.0582 16.4959 49.0582 16.1377C49.0582 15.9705 49.0875 15.8117 49.1462 15.6622C49.2037 15.5153 49.2896 15.3812 49.3989 15.2675C49.5184 15.1422 49.6488 15.0501 49.7901 14.9903C49.9441 14.9285 50.109 14.8981 50.2749 14.9009C50.4377 14.9009 50.5869 14.9295 50.7235 14.9869C50.86 15.0443 50.985 15.1323 51.097 15.2484V14.961H51.5285V17.3354H51.0973ZM52.1693 17.3354V15.3498H51.8334V14.961H52.1693V14.1928H52.5947V14.961H52.9313V15.3498H52.5947V17.3354H52.1693ZM53.6629 14.6831H53.2403V14.1928H53.6629V14.6831ZM53.2403 17.3354V14.961H53.6629V17.3354H53.2403ZM54.4771 16.1466C54.4771 16.3839 54.5526 16.5819 54.7025 16.74C54.8523 16.8987 55.0398 16.9772 55.2644 16.9772C55.4846 16.9772 55.6686 16.898 55.8178 16.7386C55.9667 16.5799 56.0411 16.3805 56.0411 16.1418C56.0411 15.9018 55.9663 15.7031 55.8178 15.5458C55.6683 15.3891 55.4832 15.3109 55.2596 15.3109C55.1551 15.3089 55.0513 15.3291 54.9552 15.3702C54.8591 15.4114 54.7728 15.4725 54.7021 15.5495C54.5526 15.7093 54.4771 15.908 54.4771 16.1466ZM54.0344 16.1511C54.0344 15.9817 54.063 15.825 54.1197 15.6789C54.1764 15.5321 54.2604 15.4017 54.371 15.2849C54.4905 15.1569 54.625 15.0583 54.7745 14.9896C54.9206 14.9213 55.0799 14.886 55.2412 14.8862C55.4132 14.8862 55.5734 14.9169 55.7205 14.9787C56.0226 15.1099 56.2624 15.3527 56.39 15.6564C56.4528 15.8063 56.4839 15.9612 56.4839 16.1203C56.4839 16.2825 56.4538 16.4409 56.3958 16.5952C56.3377 16.7495 56.2558 16.884 56.151 16.9987C56.0377 17.1262 55.8993 17.2288 55.7444 17.3002C55.5945 17.3688 55.4337 17.403 55.2644 17.403C55.0903 17.403 54.9298 17.3716 54.783 17.3091C54.6338 17.2445 54.4993 17.1502 54.3877 17.0319C54.2771 16.9151 54.1904 16.7799 54.1276 16.6253C54.0647 16.4706 54.0344 16.3125 54.0344 16.1511ZM57.279 17.3354H56.8516V14.961H57.2616V15.2317C57.351 15.1252 57.449 15.0463 57.5562 14.9968C57.6718 14.9456 57.7971 14.9203 57.9235 14.9227C58.2349 14.9227 58.4735 15.0142 58.6398 15.1969C58.806 15.3795 58.889 15.6417 58.889 15.9831V17.3354H58.4595V16.076C58.4595 15.824 58.4128 15.6366 58.3195 15.515C58.2263 15.3935 58.0809 15.3331 57.885 15.3331C57.6723 15.3331 57.5183 15.4051 57.4224 15.5478C57.3264 15.6912 57.279 15.9271 57.279 16.2572V17.3354ZM25.2786 1.91895H25.6066V18.4504H25.2786V1.91895Z" fill="white"/>
</svg>
