<svg width="30" height="32" viewBox="0 0 30 32" fill="none" xmlns="http://www.w3.org/2000/svg">
<path d="M25.3225 21.8656C24.1511 21.8664 23.0228 22.3071 22.161 23.1004C21.2992 23.8937 20.7668 24.9817 20.6691 26.149H6.67413C6.4737 26.1484 6.27787 26.0889 6.11091 25.978C5.94394 25.8672 5.81318 25.7097 5.73483 25.5252C5.65648 25.3408 5.63398 25.1373 5.67013 24.9402C5.70627 24.7431 5.79947 24.5609 5.93817 24.4162L23.3249 8.87135C23.635 8.56685 23.8474 8.17691 23.935 7.75123C24.0227 7.32555 23.9816 6.88341 23.817 6.48117C23.6525 6.07892 23.3718 5.73479 23.0109 5.49263C22.6501 5.25047 22.2252 5.12124 21.7906 5.12143H9.32983C9.23231 3.93684 8.68704 2.83394 7.80499 2.03721C6.92295 1.24049 5.77045 0.809836 4.58207 0.832913C3.3937 0.85599 2.25878 1.33106 1.40834 2.16143C0.557891 2.9918 0.0558425 4.11504 0.00438486 5.30253C-0.0470728 6.49001 0.355928 7.65247 1.13135 8.5533C1.90678 9.45412 2.99635 10.0256 4.17827 10.1514C5.3602 10.2772 6.54563 9.94782 7.49329 9.23039C8.44094 8.51295 9.07958 7.46135 9.27921 6.28963H21.7906C21.991 6.29028 22.1869 6.34973 22.3538 6.46061C22.5208 6.57149 22.6516 6.72892 22.7299 6.9134C22.8083 7.09787 22.8308 7.30129 22.7946 7.49843C22.7585 7.69557 22.6653 7.87778 22.5266 8.02246L5.1399 23.5673C4.82979 23.8718 4.61738 24.2617 4.52972 24.6874C4.44207 25.1131 4.48315 25.5552 4.64772 25.9575C4.81229 26.3597 5.09291 26.7038 5.4538 26.946C5.8147 27.1882 6.23952 27.3174 6.67413 27.3172H20.7198C20.8683 28.1958 21.2649 29.0137 21.863 29.6743C22.461 30.3349 23.2354 30.8108 24.095 31.0458C24.9545 31.2808 25.8634 31.2651 26.7143 31.0006C27.5652 30.7361 28.3228 30.2337 28.8976 29.5529C29.4725 28.872 29.8407 28.0409 29.9588 27.1577C30.0769 26.2745 29.94 25.3759 29.5642 24.5679C29.1884 23.7599 28.5894 23.0762 27.8379 22.5974C27.0863 22.1186 26.2136 21.8647 25.3225 21.8656ZM4.6843 9.01543C3.99116 9.01543 3.31358 8.80989 2.73725 8.4248C2.16092 8.03971 1.71173 7.49236 1.44648 6.85198C1.18122 6.2116 1.11182 5.50695 1.24704 4.82712C1.38227 4.1473 1.71605 3.52284 2.20618 3.03271C2.6963 2.54258 3.32076 2.2088 4.00059 2.07358C4.68041 1.93835 5.38507 2.00776 6.02545 2.27301C6.66583 2.53826 7.21317 2.98746 7.59826 3.56379C7.98335 4.14011 8.18889 4.81769 8.18889 5.51083C8.18889 6.44031 7.81966 7.33172 7.16242 7.98896C6.50518 8.64619 5.61378 9.01543 4.6843 9.01543ZM25.3225 30.043C24.6293 30.043 23.9517 29.8375 23.3754 29.4524C22.7991 29.0673 22.3499 28.5199 22.0846 27.8796C21.8194 27.2392 21.75 26.5345 21.8852 25.8547C22.0204 25.1749 22.3542 24.5504 22.8443 24.0603C23.3345 23.5702 23.9589 23.2364 24.6388 23.1011C25.3186 22.9659 26.0232 23.0353 26.6636 23.3006C27.304 23.5658 27.8513 24.015 28.2364 24.5914C28.6215 25.1677 28.8271 25.8453 28.8271 26.5384C28.8271 27.4679 28.4578 28.3593 27.8006 29.0165C27.1434 29.6738 26.2519 30.043 25.3225 30.043Z" fill="#DC0C1C"/>
<path d="M27.2266 24.8642C27.1171 24.7548 26.9686 24.6934 26.8139 24.6934C26.6591 24.6934 26.5106 24.7548 26.4011 24.8642L25.3964 25.8688L24.3879 24.8642C24.2772 24.761 24.1307 24.7048 23.9794 24.7075C23.8281 24.7102 23.6837 24.7715 23.5767 24.8785C23.4697 24.9855 23.4084 25.1299 23.4057 25.2812C23.403 25.4325 23.4592 25.579 23.5624 25.6897L24.567 26.6944L23.5624 27.7068C23.505 27.7603 23.459 27.8248 23.427 27.8964C23.3951 27.9681 23.3779 28.0454 23.3766 28.1238C23.3752 28.2023 23.3896 28.2802 23.419 28.3529C23.4484 28.4256 23.4921 28.4917 23.5475 28.5471C23.603 28.6026 23.6691 28.6463 23.7418 28.6757C23.8145 28.7051 23.8924 28.7195 23.9709 28.7181C24.0493 28.7168 24.1266 28.6996 24.1983 28.6677C24.2699 28.6357 24.3344 28.5897 24.3879 28.5323L25.3925 27.5277L26.3972 28.5323C26.5067 28.6423 26.6554 28.7043 26.8105 28.7047C26.9657 28.705 27.1147 28.6437 27.2247 28.5343C27.3347 28.4248 27.3967 28.2761 27.397 28.1209C27.3974 27.9658 27.3361 27.8168 27.2266 27.7068L26.222 26.7021L27.2266 25.6975C27.282 25.6431 27.3259 25.5783 27.3559 25.5067C27.3859 25.4352 27.4014 25.3584 27.4014 25.2808C27.4014 25.2033 27.3859 25.1265 27.3559 25.0549C27.3259 24.9834 27.282 24.9185 27.2266 24.8642Z" fill="#DC0C1C"/>
<path d="M4.68419 6.87374C5.43689 6.87374 6.04708 6.26355 6.04708 5.51085C6.04708 4.75814 5.43689 4.14795 4.68419 4.14795C3.93148 4.14795 3.32129 4.75814 3.32129 5.51085C3.32129 6.26355 3.93148 6.87374 4.68419 6.87374Z" fill="#DC0C1C"/>
</svg>
