<svg width="72" height="30" viewBox="0 0 72 30" fill="none" xmlns="http://www.w3.org/2000/svg">
<g clip-path="url(#clip0_286_807)">
<path fill-rule="evenodd" clip-rule="evenodd" d="M56.9569 0.608073L55.8943 5.04635H55.4449C55.3839 3.36399 55.0437 3.29526 54.4241 2.56209C54.1079 2.18864 53.7121 1.8939 53.267 1.70045C52.8218 1.50699 52.3392 1.41995 51.856 1.44598C50.7175 1.44598 49.5768 1.89766 48.434 2.80103C47.2912 3.70439 46.3111 5.08999 45.4935 6.95782C44.6945 8.81472 44.2855 10.8216 44.293 12.8493C44.293 14.6212 44.6493 15.9751 45.3619 16.9112C46.0746 17.8473 46.9092 18.311 47.8658 18.3023C48.3797 18.2745 48.8829 18.1421 49.3457 17.9128L50.588 13.1766C50.7454 12.6661 50.8529 12.1409 50.909 11.6088C50.9022 11.4529 50.8649 11.2998 50.7993 11.1588C50.7337 11.0177 50.6412 10.8914 50.527 10.7873C50.3087 10.5255 50.3633 10.4436 49.7566 10.4436L49.8754 9.93631H55.8012L55.6953 10.4436C55.526 10.5033 55.3684 10.593 55.2298 10.7088C54.9904 10.8608 54.8006 11.0818 54.6841 11.3437C54.5289 11.77 54.4055 12.2077 54.315 12.653L52.8543 18.1877C51.1919 18.8952 49.4072 19.2558 47.6058 19.2482C46.3461 19.2858 45.0983 18.9891 43.9848 18.3874C42.9245 17.7334 42.0683 16.7856 41.5162 15.6544C40.8559 14.3387 40.525 12.877 40.5532 11.3994C40.5532 8.00629 41.9025 5.20673 44.6011 3.00068C46.6257 1.31751 49.1603 0.402507 51.7725 0.41169C52.2018 0.410141 52.6306 0.436378 53.0566 0.490243C53.3476 0.536066 53.8613 0.660442 54.5974 0.863372C54.9106 0.964435 55.2335 1.03136 55.5605 1.06303C55.7461 1.09038 55.9354 1.06191 56.1054 0.981088C56.2753 0.90027 56.4184 0.770629 56.5171 0.608073H56.9569Z" fill="#363636"/>
<path fill-rule="evenodd" clip-rule="evenodd" d="M32.12 11.4585C32.0751 11.105 32.0398 10.7842 32.0141 10.5028C31.9884 10.2213 31.9756 9.95943 31.9756 9.74341C31.936 8.53352 32.3676 7.35684 33.1762 6.47035C33.5287 6.05743 33.9644 5.72677 34.4535 5.50086C34.9426 5.27495 35.4737 5.15907 36.0107 5.16112C36.6251 5.13017 37.2268 5.34644 37.6864 5.76336C37.8887 5.94223 38.0507 6.16347 38.1615 6.412C38.2723 6.66054 38.3292 6.93051 38.3284 7.20351C38.3417 7.8651 38.1218 8.50961 37.7088 9.02006C37.0968 9.7816 36.1156 10.4558 34.7652 11.0428C35.1985 12.4568 35.4939 13.37 35.6576 13.7856C35.8406 14.2509 36.0551 14.7026 36.2996 15.1374C36.6262 14.7824 36.894 14.3756 37.0925 13.9329C37.2313 13.6293 37.313 13.3018 37.3333 12.9674C37.337 12.7669 37.2724 12.5714 37.1503 12.4142C36.9935 12.2339 36.7823 12.1119 36.55 12.0673L36.6656 11.7138H40.3829L40.2384 12.0673C39.9151 12.1408 39.6129 12.2898 39.3556 12.5026C38.8678 13.0077 38.4241 13.5553 38.0299 14.1391C37.61 14.7243 37.1543 15.2818 36.6656 15.8084C37.0437 16.3938 37.5221 16.9049 38.078 17.3173C38.354 17.503 38.6783 17.6 39.0089 17.5955C39.1884 17.5993 39.3666 17.5648 39.5322 17.494C39.7302 17.3911 39.9129 17.2599 40.0747 17.1045H40.3957C40.135 17.7218 39.7089 18.2515 39.1662 18.6331C38.6518 18.9773 38.048 19.1563 37.4328 19.1469C36.9275 19.1557 36.4273 19.0436 35.9722 18.8196C35.4474 18.5307 34.9759 18.1508 34.579 17.697C33.9605 18.1513 33.2831 18.5159 32.5662 18.7803C31.9149 19.0218 31.2273 19.1458 30.5342 19.1469C29.664 19.1929 28.8109 18.8885 28.1587 18.2992C27.8819 18.0495 27.6603 17.7427 27.5087 17.399C27.357 17.0554 27.2788 16.6827 27.2792 16.3059C27.2666 15.7368 27.3958 15.1737 27.6547 14.6694C28.031 14.0763 28.5226 13.5683 29.0993 13.1769C30.0433 12.496 31.0559 11.9199 32.12 11.4585ZM34.579 10.2966C35.0426 9.98051 35.4407 9.57458 35.7507 9.10189C36.0837 8.56765 36.2607 7.94781 36.2611 7.3148C36.2849 6.92693 36.1835 6.54178 35.9722 6.21832C35.9019 6.12764 35.812 6.05476 35.7096 6.00536C35.6071 5.95596 35.4948 5.93139 35.3815 5.93356C35.2472 5.93224 35.1148 5.96543 34.9964 6.03007C34.878 6.09471 34.7775 6.18872 34.7042 6.30342C34.4263 6.80008 34.2989 7.36956 34.3382 7.93995C34.3382 8.26726 34.3575 8.64039 34.396 9.03643C34.4345 9.43247 34.5051 9.8416 34.579 10.2966ZM32.2645 12.1949C31.644 12.5097 31.0968 12.9561 30.6594 13.5042C30.3357 13.9677 30.169 14.5261 30.1843 15.0949C30.1652 15.7991 30.4109 16.4842 30.8713 17.0096C31.064 17.2405 31.3029 17.4269 31.572 17.5561C31.841 17.6854 32.134 17.7546 32.4314 17.7591C32.7096 17.7522 32.9845 17.6957 33.2436 17.5922C33.5787 17.4578 33.9011 17.2924 34.2066 17.098C33.7542 16.3741 33.3725 15.6067 33.067 14.8068C32.7286 13.9605 32.4602 13.0868 32.2645 12.1949Z" fill="#363636"/>
<path fill-rule="evenodd" clip-rule="evenodd" d="M22.4898 10.6397L21.0035 15.8505C20.8352 16.3536 20.7274 16.8756 20.6825 17.4052C20.6717 17.588 20.7037 17.7709 20.7756 17.9387C20.8476 18.1066 20.9576 18.2546 21.0966 18.3707C21.3662 18.5835 21.0741 18.446 21.7771 18.7144L21.6006 19.225H14.9717L15.1193 18.7144C15.5174 18.5311 15.2542 18.6326 15.5688 18.4951C15.8912 18.3429 16.1634 18.0984 16.352 17.7914C16.5061 17.5732 16.7362 16.9262 17.0422 15.8505L20.4353 3.9856C20.6189 3.43749 20.7333 2.86775 20.7756 2.29015C20.7755 2.1214 20.7347 1.95526 20.6569 1.80631C20.5791 1.65737 20.4666 1.53017 20.3294 1.43588C20.1684 1.32597 20.017 1.20223 19.8767 1.06603L19.9024 0.539062H26.1236C28.1225 0.539062 29.5553 0.796544 30.422 1.31151C31.0599 1.66353 31.5881 2.19089 31.9467 2.83369C32.3054 3.47649 32.48 4.20896 32.4508 4.94788C32.4508 6.51241 31.7745 7.89146 30.422 9.08504C29.0695 10.2786 27.259 10.871 24.9905 10.8623C24.1528 10.8487 23.3171 10.7743 22.4898 10.6397ZM22.7594 9.576C23.2436 9.64339 23.7314 9.68055 24.22 9.68728C25.4613 9.68728 26.4382 9.10795 27.1509 7.94928C27.8385 6.87491 28.2095 5.62197 28.2199 4.33909C28.2414 3.97559 28.1902 3.61142 28.0694 3.26874C27.9485 2.92605 27.7605 2.61204 27.5168 2.34579C27.2647 2.09961 26.9656 1.90894 26.6381 1.78563C26.3106 1.66232 25.9618 1.609 25.6132 1.62899C25.4399 1.62899 25.228 1.62899 24.9712 1.65518L22.7594 9.576Z" fill="#363636"/>
<path fill-rule="evenodd" clip-rule="evenodd" d="M3.17118 26.7661L2.6672 28.5336C2.6119 28.7043 2.5774 28.8813 2.56447 29.0606C2.56067 29.122 2.57086 29.1836 2.59425 29.2403C2.61764 29.2971 2.65359 29.3476 2.6993 29.3879C2.8989 29.4857 3.1208 29.5264 3.34132 29.5057L3.28033 29.6792H0.230713L0.282075 29.5057C0.466877 29.5129 0.6515 29.4874 0.827795 29.4304C0.936581 29.3788 1.02811 29.2957 1.09103 29.1915C1.19638 28.9844 1.27514 28.7644 1.32536 28.5369L2.4778 24.511C2.54261 24.3251 2.58361 24.1315 2.59978 23.9349C2.59852 23.878 2.58351 23.8222 2.55608 23.7725C2.52864 23.7228 2.48963 23.6808 2.44249 23.6502C2.27641 23.5517 2.08524 23.5061 1.89356 23.5193L1.94492 23.3458H4.40387C4.90334 23.3107 5.40365 23.4006 5.86127 23.6076C6.07767 23.727 6.25681 23.906 6.37827 24.1242C6.49974 24.3424 6.55863 24.5909 6.54823 24.8416C6.54392 25.1126 6.47995 25.3792 6.36105 25.6217C6.24215 25.8642 6.07135 26.0763 5.86127 26.2425C5.34169 26.6671 4.68679 26.8815 4.02187 26.8447C3.73677 26.8404 3.4524 26.8141 3.17118 26.7661ZM3.26428 26.4061C3.4281 26.4297 3.59321 26.4428 3.75864 26.4454C3.96126 26.4481 4.16082 26.3948 4.33606 26.291C4.5113 26.1873 4.65566 26.037 4.75377 25.8562C4.98618 25.4916 5.112 25.067 5.11652 24.6321C5.12379 24.5094 5.10679 24.3865 5.06653 24.2707C5.02627 24.1549 4.96358 24.0485 4.88218 23.9579C4.79668 23.8755 4.69574 23.8116 4.58542 23.7699C4.47509 23.7283 4.35765 23.7098 4.24015 23.7157H4.02508L3.26428 26.4061Z" fill="#363636"/>
<path fill-rule="evenodd" clip-rule="evenodd" d="M8.46471 25.3458L7.77453 27.9642C8.34272 26.6812 8.76967 25.8957 9.05858 25.5978C9.12552 25.5198 9.20723 25.4564 9.2988 25.4114C9.39037 25.3664 9.48992 25.3408 9.59146 25.336C9.6526 25.3327 9.71361 25.3444 9.76943 25.37C9.82526 25.3957 9.87429 25.4345 9.91247 25.4833C9.99906 25.5968 10.0414 25.7391 10.0312 25.8826C10.0411 26.1537 9.96571 26.4208 9.81617 26.6452C9.78345 26.7031 9.7368 26.7515 9.68063 26.7858C9.62446 26.8202 9.56063 26.8394 9.49516 26.8416C9.4381 26.8426 9.38197 26.8268 9.33354 26.796C9.28512 26.7652 9.24648 26.7208 9.2223 26.6681C9.18845 26.596 9.14526 26.5288 9.09389 26.4685C9.0723 26.4474 9.04353 26.4356 9.01364 26.4357C8.9801 26.4375 8.94729 26.4464 8.91733 26.4619C8.81473 26.5387 8.72571 26.6328 8.6541 26.7401C8.49694 26.9698 8.36355 27.2155 8.25605 27.4733C8.09554 27.8006 7.97035 28.1017 7.88368 28.3374C7.73598 28.7775 7.61167 29.2255 7.5113 29.6793H6.40381L7.15819 26.5961C7.19971 26.4463 7.22764 26.2929 7.24165 26.1379C7.24431 26.0695 7.22878 26.0016 7.19671 25.9415C7.16815 25.8961 7.12672 25.8608 7.07793 25.84C6.97361 25.8101 6.86498 25.7991 6.75692 25.8073L6.79544 25.6731L8.18222 25.3622L8.46471 25.3458Z" fill="#363636"/>
<path fill-rule="evenodd" clip-rule="evenodd" d="M12.9781 25.3462C13.2155 25.3457 13.4493 25.4053 13.6586 25.5197C13.8615 25.6233 14.0285 25.7877 14.1369 25.991C14.2494 26.197 14.307 26.4295 14.3039 26.6652C14.2951 27.1976 14.1514 27.7185 13.8865 28.1774C13.628 28.6644 13.2525 29.0766 12.7951 29.3753C12.3899 29.6492 11.9168 29.8001 11.4308 29.8107C11.253 29.821 11.0751 29.7925 10.909 29.7271C10.7429 29.6616 10.5925 29.5606 10.4678 29.431C10.2399 29.1795 10.1178 28.8469 10.1275 28.5047C10.1246 28.0863 10.21 27.6722 10.3779 27.2904C10.5383 26.9298 10.7551 26.5981 11.0199 26.3085C11.2787 26.024 11.5852 25.789 11.9252 25.6146C12.2494 25.4387 12.6109 25.3466 12.9781 25.3462ZM12.7919 25.5949C12.6441 25.5896 12.4998 25.641 12.3874 25.739C12.0574 26.1435 11.8116 26.6124 11.6651 27.1169C11.4142 27.741 11.2772 28.4065 11.2607 29.0808C11.2582 29.1454 11.2682 29.2099 11.2903 29.2706C11.3123 29.3312 11.3459 29.3869 11.3891 29.4342C11.4265 29.4785 11.4728 29.5139 11.5249 29.5382C11.577 29.5625 11.6336 29.575 11.6908 29.575C11.8073 29.5774 11.9209 29.538 12.0118 29.4637C12.2176 29.2434 12.3848 28.9888 12.5062 28.7109C12.7108 28.2927 12.8721 27.8539 12.9877 27.4017C13.1065 26.9756 13.1692 26.5354 13.1739 26.0925C13.1818 25.9629 13.1455 25.8345 13.0712 25.7291C13.0376 25.6867 12.9951 25.6525 12.9467 25.6293C12.8983 25.606 12.8454 25.5943 12.7919 25.5949Z" fill="#363636"/>
<path fill-rule="evenodd" clip-rule="evenodd" d="M18.1111 28.5597L18.2492 28.6841C18.0052 28.9998 17.7086 29.269 17.3728 29.4795C17.0131 29.6931 16.6045 29.806 16.1883 29.8068C15.9323 29.8105 15.6795 29.7486 15.4531 29.6268C15.2541 29.5118 15.0949 29.3369 14.9973 29.126C14.9008 28.9216 14.8493 28.6982 14.8464 28.4714C14.8526 27.942 14.9931 27.4233 15.2541 26.9658C15.5113 26.4889 15.8823 26.0859 16.3327 25.794C16.7214 25.5231 17.1783 25.372 17.6489 25.3587C17.9274 25.3375 18.2038 25.4214 18.4257 25.5943C18.5092 25.6647 18.5762 25.7533 18.6218 25.8536C18.6673 25.9538 18.6903 26.0632 18.689 26.1737C18.6934 26.3702 18.6219 26.5606 18.4899 26.7039C18.4368 26.7713 18.37 26.8262 18.2941 26.8646C18.2181 26.903 18.1349 26.9241 18.0501 26.9265C17.9188 26.9289 17.7919 26.8783 17.697 26.7857C17.6105 26.6995 17.5609 26.5818 17.559 26.4584C17.5623 26.37 17.5868 26.2838 17.6305 26.2073C17.6742 26.1308 17.7356 26.0664 17.8094 26.0198C17.9217 25.9347 17.9763 25.8562 17.9763 25.7907C17.977 25.7644 17.9712 25.7383 17.9594 25.7148C17.9476 25.6914 17.9303 25.6713 17.9089 25.6565C17.8404 25.6047 17.7566 25.5781 17.6713 25.5813C17.3971 25.5904 17.137 25.7078 16.9459 25.9086C16.6379 26.2043 16.4025 26.5698 16.2589 26.9756C16.1085 27.3658 16.028 27.7805 16.0213 28.1997C16.0082 28.4663 16.0942 28.7281 16.2621 28.9329C16.3338 29.0174 16.4225 29.0851 16.5222 29.1315C16.622 29.1778 16.7303 29.2016 16.8399 29.2013C17.0624 29.1984 17.2815 29.1458 17.4819 29.0474C17.7195 28.926 17.9328 28.7606 18.1111 28.5597Z" fill="#363636"/>
<path fill-rule="evenodd" clip-rule="evenodd" d="M21.4432 24.207L21.0773 25.477H21.6776L21.5171 26.0138H20.9264L20.1592 28.7239C20.1189 28.8478 20.0941 28.9765 20.0854 29.1068C20.0873 29.1478 20.1045 29.1864 20.1335 29.2148C20.1452 29.2282 20.1596 29.2389 20.1756 29.2462C20.1917 29.2535 20.209 29.2573 20.2266 29.2574C20.2856 29.2534 20.3417 29.2305 20.3871 29.1919C20.5757 29.0269 20.74 28.8351 20.8751 28.6224L21.0356 28.7239C20.8655 29.0477 20.625 29.3276 20.3325 29.5421C20.1158 29.7038 19.8562 29.795 19.5878 29.804C19.4113 29.8141 19.2374 29.7569 19.0999 29.6436C19.0448 29.5909 19.0015 29.5269 18.9727 29.4558C18.9439 29.3847 18.9303 29.3081 18.9329 29.2312C18.9434 29.0032 18.9833 28.7776 19.0517 28.5602L19.774 26.0301H19.1512L19.2443 25.7028C19.5945 25.5764 19.9269 25.4036 20.233 25.189C20.586 24.9081 20.9088 24.5899 21.1961 24.2398L21.4432 24.207Z" fill="#363636"/>
<path fill-rule="evenodd" clip-rule="evenodd" d="M22.8268 27.9252C22.8014 28.0909 22.7874 28.2583 22.785 28.426C22.7759 28.6315 22.8462 28.8325 22.9808 28.9857C23.051 29.0569 23.1349 29.1125 23.2271 29.1491C23.3194 29.1857 23.418 29.2025 23.5169 29.1984C23.7401 29.1955 23.9597 29.1406 24.159 29.0381C24.4347 28.891 24.6877 28.7035 24.9101 28.4816L25.0482 28.6093C24.7676 28.9833 24.4201 29.2998 24.0241 29.5421C23.6843 29.7296 23.303 29.8254 22.9166 29.8203C22.7241 29.8429 22.5292 29.8208 22.3462 29.7556C22.1633 29.6904 21.9973 29.5838 21.8605 29.4439C21.6615 29.1949 21.5567 28.8813 21.5652 28.5602C21.5747 28.0191 21.7254 27.4904 22.0017 27.0284C22.2898 26.5226 22.6997 26.1001 23.1927 25.801C23.6469 25.5057 24.1725 25.3448 24.7111 25.3362C24.921 25.3206 25.1289 25.3873 25.2921 25.5228C25.3559 25.5832 25.4064 25.6568 25.4402 25.7386C25.4739 25.8204 25.4902 25.9086 25.4879 25.9974C25.4846 26.2296 25.4179 26.4563 25.2953 26.652C25.1299 26.9429 24.9015 27.1914 24.6276 27.3786C24.3493 27.5613 24.045 27.6993 23.7256 27.7878C23.4307 27.8612 23.1298 27.9072 22.8268 27.9252ZM22.8685 27.683C23.0824 27.6576 23.2919 27.6026 23.4912 27.5194C23.6558 27.4394 23.8039 27.3283 23.9278 27.1921C24.0859 27.0165 24.2139 26.8151 24.3066 26.5964C24.4026 26.3915 24.4561 26.1686 24.4639 25.9417C24.4666 25.8658 24.4401 25.7918 24.3901 25.7355C24.3669 25.7112 24.3388 25.6922 24.3078 25.6798C24.2768 25.6674 24.2436 25.6618 24.2103 25.6635C24.1101 25.68 24.0144 25.7176 23.9292 25.7739C23.8441 25.8303 23.7715 25.9042 23.716 25.9908C23.3166 26.4857 23.0275 27.063 22.8685 27.683Z" fill="#363636"/>
<path fill-rule="evenodd" clip-rule="evenodd" d="M27.7479 25.3458L27.0545 27.9642C27.6227 26.6812 28.0529 25.8957 28.3386 25.5978C28.4055 25.5198 28.4872 25.4564 28.5788 25.4114C28.6704 25.3664 28.7699 25.3408 28.8714 25.336C28.9326 25.3327 28.9936 25.3444 29.0494 25.37C29.1052 25.3957 29.1543 25.4345 29.1925 25.4833C29.279 25.5968 29.3214 25.7391 29.3112 25.8826C29.321 26.1537 29.2457 26.4208 29.0962 26.6452C29.0632 26.7029 29.0165 26.7511 28.9604 26.7854C28.9043 26.8198 28.8405 26.8391 28.7751 26.8416C28.7181 26.8426 28.662 26.8268 28.6135 26.796C28.5651 26.7652 28.5265 26.7208 28.5023 26.6681C28.4684 26.596 28.4252 26.5288 28.3739 26.4685C28.3523 26.4474 28.3235 26.4356 28.2936 26.4357C28.2601 26.4375 28.2273 26.4464 28.1973 26.4619C28.0939 26.5378 28.0048 26.632 27.9341 26.7401C27.7774 26.9672 27.643 27.2095 27.5328 27.4635C27.3755 27.7908 27.2503 28.0919 27.1637 28.3276C27.016 28.7677 26.8917 29.2157 26.7913 29.6695H25.687L26.4414 26.5961C26.4829 26.4463 26.5108 26.2929 26.5249 26.1379C26.5275 26.0695 26.512 26.0016 26.4799 25.9415C26.4514 25.8961 26.4099 25.8608 26.3611 25.84C26.2568 25.8103 26.1482 25.7993 26.0401 25.8073L26.0819 25.6731L27.4654 25.3622L27.7479 25.3458Z" fill="#363636"/>
<path fill-rule="evenodd" clip-rule="evenodd" d="M34.258 26.1841C34.2356 26.0139 34.2195 25.8567 34.2067 25.7291C34.1938 25.6014 34.1874 25.4738 34.1874 25.3691C34.1687 24.7967 34.373 24.2401 34.7556 23.8209C34.923 23.625 35.1298 23.4682 35.3618 23.3609C35.5939 23.2536 35.8459 23.1984 36.1007 23.199C36.3912 23.1851 36.6757 23.2872 36.8936 23.4838C36.9886 23.5687 37.0646 23.6735 37.1167 23.7909C37.1687 23.9083 37.1955 24.0357 37.1953 24.1646C37.2012 24.4783 37.0964 24.7838 36.9 25.0254C36.5176 25.452 36.0412 25.7796 35.51 25.9811C35.7122 26.6357 35.8535 27.0841 35.9305 27.2904C36.0222 27.516 36.1294 27.7348 36.2515 27.945C36.4082 27.7781 36.5362 27.5856 36.6303 27.3754C36.6947 27.2309 36.7328 27.0756 36.7427 26.9172C36.7444 26.8223 36.7138 26.7298 36.656 26.6554C36.5821 26.5705 36.4828 26.513 36.3735 26.4917L36.4281 26.3248H38.1872L38.1166 26.4917C37.9642 26.5253 37.8221 26.596 37.7025 26.6979C37.4655 26.9334 37.2505 27.1909 37.0605 27.4671C36.8621 27.7439 36.6477 28.0084 36.4185 28.2592C36.5973 28.5359 36.8234 28.7776 37.0862 28.9727C37.2163 29.0608 37.3697 29.1065 37.526 29.1036C37.6105 29.1051 37.6945 29.0895 37.7731 29.0578C37.8666 29.0103 37.953 28.9497 38.0299 28.8778H38.1776C38.0534 29.17 37.8523 29.4215 37.5966 29.6044C37.3519 29.7657 37.0661 29.8499 36.7748 29.8466C36.5362 29.8503 36.3 29.7976 36.0846 29.6928C35.8428 29.5528 35.6258 29.3725 35.4426 29.1593C35.1474 29.3767 34.823 29.5497 34.4795 29.6731C34.1705 29.7863 33.8449 29.845 33.5165 29.8466C33.1047 29.8677 32.7013 29.7232 32.393 29.444C32.2627 29.3255 32.1585 29.1803 32.0871 29.0178C32.0158 28.8554 31.9789 28.6794 31.9789 28.5014C31.9733 28.235 32.0341 27.9715 32.1554 27.7355C32.33 27.4504 32.5607 27.2052 32.8328 27.0154C33.2771 26.6867 33.7549 26.408 34.258 26.1841ZM35.4265 25.6309C35.646 25.4821 35.8347 25.2909 35.9819 25.0679C36.1393 24.8143 36.2228 24.5203 36.2226 24.2202C36.2344 24.037 36.1858 23.855 36.0846 23.7031C36.0515 23.6598 36.0092 23.6249 35.9607 23.6011C35.9123 23.5772 35.8591 23.5651 35.8053 23.5656C35.7422 23.5647 35.6798 23.5798 35.6238 23.6095C35.5678 23.6392 35.5199 23.6826 35.4843 23.7358C35.352 23.9722 35.2917 24.2433 35.311 24.5148C35.311 24.6752 35.311 24.8421 35.3366 25.0352C35.3623 25.2283 35.3687 25.4182 35.4105 25.6309H35.4265ZM34.3255 26.5343C34.0339 26.6808 33.7766 26.8895 33.5711 27.1463C33.4174 27.3654 33.3385 27.6299 33.3464 27.8991C33.3364 28.232 33.4512 28.5562 33.6674 28.8058C33.7571 28.9158 33.8688 29.0052 33.995 29.0678C34.1212 29.1304 34.259 29.165 34.3993 29.1691C34.5313 29.1665 34.6617 29.1399 34.7845 29.0905C34.9374 29.0271 35.0837 28.9482 35.2211 28.8549C35.0066 28.5128 34.826 28.1499 34.6818 27.7715C34.5234 27.3706 34.3989 26.9567 34.3094 26.5343H34.3255Z" fill="#363636"/>
<path fill-rule="evenodd" clip-rule="evenodd" d="M48.1801 23.1987L47.7404 25.2313H47.567C47.5861 24.7718 47.4463 24.32 47.1722 23.9548C47.0436 23.8204 46.8882 23.7158 46.7165 23.648C46.5448 23.5803 46.3608 23.5509 46.177 23.562C45.6989 23.576 45.2373 23.7432 44.8577 24.0399C44.366 24.4204 43.9781 24.923 43.7309 25.4997C43.4281 26.1488 43.2734 26.8593 43.2783 27.5781C43.2445 28.0895 43.3901 28.5964 43.6892 29.0084C43.8033 29.1587 43.9491 29.2808 44.1158 29.3658C44.2825 29.4508 44.4659 29.4964 44.6522 29.4994C44.8481 29.4904 45.0406 29.4449 45.2204 29.3652L45.6987 27.6926C45.7582 27.5133 45.798 27.3278 45.8175 27.1395C45.8178 27.0828 45.8045 27.027 45.7788 26.9768C45.753 26.9266 45.7156 26.8835 45.6698 26.8515C45.5235 26.7543 45.3493 26.7105 45.1755 26.7271L45.2204 26.5503H47.9041L47.8623 26.7271C47.7317 26.7295 47.6033 26.7619 47.4868 26.822C47.395 26.8732 47.321 26.9521 47.2749 27.0479C47.215 27.1951 47.1678 27.3473 47.1336 27.5028L46.5687 29.4666C45.9216 29.7164 45.235 29.8429 44.5431 29.8398C44.0604 29.8539 43.5815 29.7495 43.1467 29.5354C42.7421 29.315 42.4079 28.9811 42.1836 28.5731C41.9288 28.1168 41.7991 27.599 41.8081 27.074C41.8083 26.4893 41.9514 25.9138 42.2243 25.3995C42.4972 24.8853 42.8914 24.4484 43.3714 24.1283C44.1779 23.5315 45.1517 23.2159 46.1481 23.2282C46.3143 23.228 46.4804 23.2367 46.6457 23.2544C46.7613 23.2544 46.9667 23.3133 47.2428 23.3853C47.3651 23.423 47.491 23.4472 47.6184 23.4573C47.6945 23.4513 47.7683 23.4275 47.834 23.3878C47.8997 23.3481 47.9555 23.2935 47.9972 23.2282L48.1801 23.1987Z" fill="#363636"/>
<path fill-rule="evenodd" clip-rule="evenodd" d="M52.4433 25.4114L51.5541 28.5208L51.461 28.8874C51.4577 28.9222 51.4577 28.9573 51.461 28.9921C51.4614 29.028 51.4739 29.0627 51.4963 29.0903C51.5186 29.1132 51.5482 29.1272 51.5798 29.1296C51.6817 29.1108 51.7751 29.0592 51.8462 28.9823C51.9622 28.8454 52.0694 28.7011 52.1672 28.5503L52.3277 28.6354C52.1614 28.9856 51.9227 29.2949 51.6279 29.542C51.4016 29.7226 51.1224 29.8206 50.835 29.8202C50.763 29.8254 50.6907 29.816 50.6224 29.7924C50.554 29.7688 50.491 29.7315 50.437 29.6827C50.3912 29.6375 50.3553 29.5829 50.3315 29.5226C50.3077 29.4622 50.2966 29.3975 50.2989 29.3325C50.3207 29.1017 50.3692 28.8743 50.4434 28.655L50.5557 28.2786C50.2951 28.7747 49.9481 29.2183 49.5317 29.5878C49.3618 29.7314 49.1488 29.8111 48.9282 29.8137C48.8042 29.8217 48.6806 29.7929 48.5723 29.7308C48.464 29.6686 48.3758 29.5757 48.3183 29.4634C48.1913 29.2163 48.1273 28.9405 48.1321 28.6615C48.1528 28.1354 48.2865 27.6204 48.5237 27.1527C48.7596 26.6193 49.1147 26.1496 49.5606 25.7812C49.8316 25.5256 50.1808 25.373 50.5493 25.3492C50.6249 25.3458 50.7003 25.3576 50.7714 25.384C50.8425 25.4104 50.9077 25.4509 50.9634 25.503C51.0915 25.6603 51.1708 25.8528 51.1913 26.0562L51.3551 25.4801L52.4433 25.4114ZM50.9763 26.3017C50.9905 26.1119 50.9504 25.922 50.8607 25.7551C50.8362 25.7176 50.8026 25.6871 50.7633 25.6664C50.724 25.6458 50.6802 25.6358 50.636 25.6372C50.5245 25.6443 50.42 25.6947 50.3439 25.778C50.0449 26.1207 49.8148 26.52 49.6665 26.953C49.4555 27.4353 49.3356 27.9539 49.3134 28.4815C49.3047 28.6066 49.3315 28.7315 49.3905 28.8416C49.41 28.8727 49.4365 28.8987 49.4677 28.9174C49.4989 28.9362 49.534 28.9472 49.5702 28.9496C49.6526 28.9415 49.7323 28.9157 49.8043 28.8739C49.8762 28.8322 49.9386 28.7754 49.9875 28.7074C50.205 28.4503 50.3885 28.1653 50.5333 27.8596C50.7959 27.3817 50.9474 26.8487 50.9763 26.3017Z" fill="#363636"/>
<path fill-rule="evenodd" clip-rule="evenodd" d="M55.1238 25.3458L54.5364 27.3555C54.8017 26.9249 55.0889 26.5086 55.3967 26.1085C55.5812 25.8677 55.8035 25.6597 56.0548 25.4931C56.2128 25.3992 56.3919 25.3485 56.5748 25.3458C56.6557 25.3383 56.7372 25.351 56.8122 25.3829C56.8872 25.4149 56.9534 25.4651 57.005 25.5291C57.0926 25.6443 57.14 25.786 57.1398 25.9317C57.125 26.1544 57.0829 26.3743 57.0146 26.5863L56.8091 27.3391C57.0728 26.9092 57.3589 26.494 57.6662 26.0954C57.8636 25.8403 58.0999 25.6193 58.366 25.4408C58.5 25.3624 58.6514 25.3207 58.8058 25.3197C58.8812 25.317 58.9563 25.3308 59.0261 25.3602C59.0959 25.3895 59.1587 25.4337 59.2103 25.4899C59.2652 25.5459 59.3081 25.6129 59.3362 25.6867C59.3644 25.7605 59.3773 25.8395 59.374 25.9186C59.3633 26.1822 59.318 26.4431 59.2392 26.6943L58.7288 28.4389C58.6726 28.5999 58.6338 28.7668 58.6132 28.9364C58.6137 28.9632 58.624 28.9889 58.6421 29.0084C58.6601 29.0271 58.684 29.0386 58.7095 29.0411C58.7423 29.0409 58.7739 29.0294 58.7994 29.0084C58.9317 28.8915 59.0483 28.7572 59.1461 28.6091C59.175 28.5731 59.2135 28.5142 59.2713 28.4389L59.4254 28.5404C59.2611 28.8844 59.023 29.1865 58.7288 29.4241C58.5315 29.5899 58.2875 29.6873 58.0322 29.7023C57.8686 29.7113 57.7078 29.6563 57.5828 29.5485C57.53 29.5029 57.4875 29.4462 57.4582 29.3824C57.4288 29.3186 57.4133 29.2491 57.4126 29.1786C57.426 28.9726 57.4648 28.7691 57.5282 28.5731L58.045 26.75C58.095 26.5967 58.1304 26.4388 58.151 26.2787C58.1507 26.2665 58.1477 26.2545 58.1421 26.2437C58.1365 26.2329 58.1286 26.2236 58.1189 26.2165C58.1024 26.1975 58.0794 26.1858 58.0547 26.1837C58.0134 26.1845 57.9729 26.1946 57.9359 26.2132C57.836 26.2815 57.7453 26.363 57.6662 26.4554C57.4784 26.6788 57.3057 26.915 57.1494 27.1624C56.9725 27.4126 56.8147 27.6763 56.6775 27.9512C56.5727 28.1904 56.4868 28.4378 56.4207 28.6909L56.1414 29.6532H54.9794L55.8365 26.5994C55.8727 26.4936 55.8964 26.3837 55.9071 26.2721C55.906 26.2606 55.9025 26.2494 55.897 26.2393C55.8915 26.2292 55.884 26.2203 55.875 26.2132C55.8674 26.2042 55.858 26.197 55.8475 26.1919C55.837 26.1868 55.8256 26.1841 55.814 26.1837C55.7016 26.1837 55.5219 26.3343 55.2779 26.6387C54.8742 27.1573 54.5326 27.7232 54.2603 28.3243L53.8911 29.6663H52.7227L53.583 26.6616C53.6515 26.4573 53.6946 26.2451 53.7114 26.0299C53.7124 25.9857 53.7 25.9423 53.6761 25.9055C53.647 25.8644 53.6051 25.8344 53.5573 25.8204C53.4527 25.792 53.3443 25.7809 53.2363 25.7877L53.2812 25.611L54.8445 25.3327L55.1238 25.3458Z" fill="#363636"/>
<path fill-rule="evenodd" clip-rule="evenodd" d="M62.9052 23.1987L62.1123 26.0136C62.2849 25.8056 62.4886 25.6267 62.7158 25.4833C62.8768 25.3922 63.0581 25.3448 63.2422 25.3459C63.4023 25.3355 63.5622 25.3678 63.7062 25.4396C63.8503 25.5113 63.9736 25.62 64.064 25.755C64.2496 26.0275 64.3462 26.3528 64.3401 26.6845C64.3388 27.5257 64.0165 28.3334 63.4413 28.9364C63.2172 29.2059 62.9391 29.4233 62.6257 29.5741C62.3123 29.7248 61.9708 29.8054 61.6243 29.8103C61.0609 29.7945 60.5099 29.6383 60.0193 29.3554L61.4221 24.3999C61.4725 24.2436 61.507 24.0824 61.5248 23.9188C61.5253 23.8833 61.517 23.8482 61.5008 23.8167C61.4845 23.7853 61.4608 23.7585 61.4317 23.7388C61.3143 23.6695 61.1777 23.6419 61.0433 23.6602L61.0915 23.4737L62.6227 23.1987H62.9052ZM61.146 29.4012C61.2621 29.4874 61.4006 29.5364 61.5441 29.5419C61.6861 29.5467 61.8269 29.5128 61.9518 29.4437C62.1702 29.2929 62.356 29.098 62.4975 28.8709C62.7053 28.5618 62.8676 28.2233 62.979 27.8661C63.105 27.4876 63.1701 27.0908 63.1716 26.6911C63.1823 26.5106 63.13 26.332 63.024 26.187C62.983 26.1347 62.9313 26.092 62.8726 26.0621C62.8138 26.0321 62.7494 26.0156 62.6837 26.0136C62.5716 26.0182 62.4623 26.0504 62.3651 26.1074C62.2678 26.1644 62.1855 26.2445 62.1251 26.3409C61.9629 26.6094 61.8457 26.9036 61.7784 27.2115L61.146 29.4012Z" fill="#363636"/>
<path fill-rule="evenodd" clip-rule="evenodd" d="M67.6016 23.1987L66.0832 28.4585C66.0213 28.6492 65.9773 28.8453 65.9516 29.0444C65.9515 29.0814 65.964 29.1172 65.9869 29.1459C66.0107 29.1709 66.0427 29.1861 66.0768 29.1884C66.1343 29.1866 66.1891 29.1633 66.2309 29.123C66.4253 28.9443 66.5911 28.7355 66.722 28.5044L66.9018 28.5895C66.6818 28.98 66.3909 29.3244 66.0447 29.6041C65.8655 29.7371 65.6499 29.8092 65.4283 29.8103C65.2535 29.8182 65.082 29.7599 64.9468 29.6467C64.8911 29.5961 64.8466 29.5341 64.8161 29.4647C64.7857 29.3953 64.7701 29.3201 64.7703 29.2441C64.7833 29.0546 64.82 28.8677 64.8794 28.6877L66.1153 24.3803C66.1661 24.2274 66.2005 24.0694 66.218 23.909C66.2184 23.8731 66.2098 23.8377 66.1929 23.8061C66.1761 23.7746 66.1516 23.748 66.1217 23.729C66.0043 23.6597 65.8677 23.6321 65.7333 23.6504L65.7814 23.4737L67.3255 23.1987H67.6016Z" fill="#363636"/>
<path fill-rule="evenodd" clip-rule="evenodd" d="M68.7057 27.9251C68.6803 28.0908 68.6663 28.2582 68.6639 28.4259C68.6548 28.6314 68.7251 28.8324 68.8598 28.9856C68.9299 29.0568 69.0138 29.1124 69.106 29.149C69.1983 29.1856 69.2969 29.2024 69.3959 29.1983C69.619 29.1954 69.8386 29.1405 70.0379 29.038C70.3136 28.8909 70.5667 28.7034 70.789 28.4815L70.9271 28.6092C70.6427 28.9845 70.2908 29.3011 69.8902 29.542C69.5516 29.7298 69.1713 29.8256 68.7859 29.8202C68.5929 29.8433 68.3973 29.8214 68.2138 29.7562C68.0303 29.691 67.8637 29.5842 67.7266 29.4438C67.5319 29.2 67.4274 28.8941 67.4313 28.5797C67.4408 28.0387 67.5915 27.5099 67.8678 27.0479C68.1559 26.5421 68.5658 26.1197 69.0588 25.8205C69.5129 25.5252 70.0386 25.3643 70.5772 25.3558C70.7871 25.3401 70.995 25.4068 71.1582 25.5423C71.222 25.6027 71.2725 25.6763 71.3063 25.7581C71.34 25.8399 71.3563 25.9282 71.354 26.0169C71.3507 26.2491 71.284 26.4758 71.1614 26.6715C70.994 26.9564 70.7658 27.1992 70.4937 27.3818C70.2154 27.5645 69.9111 27.7024 69.5917 27.7909C69.3008 27.8624 69.0043 27.9074 68.7057 27.9251ZM68.7474 27.6829C68.9614 27.658 69.171 27.6029 69.3702 27.5193C69.5347 27.4393 69.6828 27.3282 69.8067 27.192C69.9614 27.0157 70.0861 26.8143 70.1759 26.5963C70.2733 26.3919 70.3269 26.1688 70.3332 25.9416C70.3359 25.8657 70.3094 25.7917 70.2594 25.7354C70.2361 25.7111 70.2081 25.6921 70.1771 25.6797C70.1461 25.6673 70.1129 25.6617 70.0796 25.6634C69.9795 25.6803 69.8839 25.718 69.7988 25.7744C69.7138 25.8307 69.641 25.9044 69.5852 25.9907C69.1894 26.4865 68.9035 27.0638 68.7474 27.6829Z" fill="#363636"/>
</g>
<defs>
<clipPath id="clip0_286_807">
<rect width="71.1363" height="29.4118" fill="white" transform="translate(0.230713 0.411621)"/>
</clipPath>
</defs>
</svg>
