<svg width="200" height="26" viewBox="0 0 200 26" fill="none" xmlns="http://www.w3.org/2000/svg">
  <path d="M117.5 0C110.597 0 105 5.59651 105 12.5C105 19.4035 110.597 25 117.5 25C124.403 25 130 19.4035 130 12.5C130 5.59651 124.403 0 117.5 0ZM124.532 5.80969L121.733 18.9536C121.68 19.2116 121.386 19.3381 121.163 19.1982L116.859 16.3436L114.595 18.4504C114.394 18.6228 114.081 18.5388 113.994 18.2884L112.52 13.6394L108.562 12.0161C108.258 11.8777 108.262 11.394 108.573 11.2731L124.025 5.38282C124.303 5.27483 124.591 5.51717 124.532 5.80969Z" fill="white"/>
  <path d="M114.469 16.9096L114.721 14.5197L121.701 7.69629L113.274 13.2304L114.469 16.9096Z" fill="white"/>
</svg>
