<svg width="200" height="26" viewBox="0 0 200 26" fill="none" xmlns="http://www.w3.org/2000/svg">
  <path d="M152.5 0C145.597 0 140 5.59651 140 12.5C140 19.4035 145.597 25 152.5 25C159.403 25 165 19.4035 165 12.5C165 5.59651 159.403 0 152.5 0ZM152.077 6.51337C152.169 6.5116 152.266 6.52579 152.349 6.52554C152.383 6.52529 152.414 6.52275 152.441 6.51591C155.426 6.6244 158.031 9.33799 157.977 12.3231C157.977 12.5943 158.085 13.0285 157.651 13.0285C157.217 13.0285 157.325 12.5943 157.325 12.2688C157.278 11.8754 157.213 11.5081 157.131 11.1659C157.048 10.8237 156.948 10.5063 156.828 10.2125C156.649 9.77171 156.427 9.38387 156.158 9.04445C155.351 8.02594 154.127 7.44215 152.386 7.16737C152.115 7.11313 151.735 7.16737 151.735 6.84164C151.735 6.55976 151.898 6.51312 152.077 6.51337ZM156.185 12.4316C155.697 12.4858 155.805 12.0516 155.751 11.7803C155.426 9.88071 154.774 9.17525 152.821 8.74103C152.549 8.68678 152.115 8.74103 152.169 8.3068C152.224 7.87258 152.658 8.03557 152.929 8.08982C154.883 8.3068 156.457 9.93496 156.457 11.7803C156.402 11.9973 156.565 12.3773 156.185 12.4316ZM154.992 11.4546C154.992 11.6716 154.992 11.9431 154.666 11.9973C154.449 11.9973 154.34 11.8346 154.286 11.6174C154.232 10.8034 153.797 10.3692 152.983 10.2604C152.766 10.2062 152.495 10.1519 152.603 9.82621C152.658 9.60922 152.875 9.60922 153.092 9.60922C154.015 9.55523 154.992 10.5322 154.992 11.4546ZM158.031 17.4248C157.705 18.3475 156.565 19.2699 155.588 19.2699C155.48 19.2157 155.208 19.2157 154.937 19.1072C150.704 17.262 147.556 14.277 145.819 9.93521C145.222 8.52404 145.874 7.27587 147.339 6.78739C147.61 6.6789 147.882 6.6789 148.153 6.78739C148.804 7.00438 150.378 9.22975 150.432 9.88096C150.487 10.4237 150.107 10.6949 149.781 10.9122C149.13 11.3464 149.13 11.9433 149.401 12.5403C150.052 13.9515 151.138 14.8739 152.495 15.5254C152.983 15.7424 153.472 15.7424 153.797 15.1996C154.394 14.277 155.154 14.277 155.968 14.8739C156.348 15.1451 156.782 15.4166 157.162 15.7424C157.705 16.1763 158.356 16.5563 158.031 17.4248Z" fill="white"/>
</svg>
