<svg width="200" height="26" viewBox="0 0 200 26" fill="none" xmlns="http://www.w3.org/2000/svg">
  <path d="M188.009 5.29297C184.526 5.29297 181.694 8.12519 181.692 11.6066C181.692 12.7998 182.026 13.9615 182.658 14.9668L182.808 15.2056L182.17 17.5357L184.56 16.9088L184.79 17.0457C185.76 17.6211 186.871 17.9253 188.004 17.9258H188.007C191.487 17.9258 194.319 15.0933 194.321 11.6117C194.321 9.92445 193.665 8.33812 192.473 7.1447C191.281 5.95102 189.696 5.29348 188.009 5.29297ZM191.723 14.3212C191.565 14.7645 190.807 15.1694 190.442 15.2236C190.115 15.2725 189.701 15.2928 189.247 15.1483C188.971 15.0609 188.617 14.944 188.164 14.7486C186.26 13.9265 185.016 12.0091 184.922 11.8826C184.827 11.7559 184.146 10.8535 184.146 9.91912C184.146 8.98477 184.637 8.5257 184.811 8.33558C184.985 8.14547 185.191 8.09807 185.317 8.09807C185.443 8.09807 185.57 8.09933 185.681 8.10466C185.797 8.11049 185.954 8.06055 186.108 8.43039C186.266 8.81062 186.646 9.74472 186.693 9.83978C186.741 9.93484 186.772 10.0456 186.709 10.1724C186.646 10.2988 186.614 10.3782 186.519 10.489C186.424 10.5997 186.32 10.7364 186.234 10.8215C186.139 10.9161 186.04 11.019 186.151 11.2089C186.262 11.399 186.643 12.0205 187.207 12.5237C187.932 13.1704 188.544 13.3709 188.734 13.4659C188.924 13.561 189.034 13.545 189.145 13.4185C189.256 13.2918 189.619 12.8641 189.746 12.6743C189.872 12.4844 189.999 12.5159 190.173 12.5792C190.347 12.6426 191.28 13.1017 191.47 13.1967C191.66 13.2918 191.787 13.3392 191.834 13.4185C191.881 13.4976 191.881 13.8778 191.723 14.3212Z" fill="white"/>
  <path d="M187.5 0C180.597 0 175 5.59651 175 12.5C175 19.4035 180.597 25 187.5 25C194.403 25 200 19.4035 200 12.5C200 5.59651 194.403 0 187.5 0ZM188.006 19.2091C188.006 19.2091 188.007 19.2091 188.006 19.2091H188.003C186.732 19.2086 185.483 18.8897 184.373 18.2843L180.346 19.3409L181.424 15.4042C180.759 14.2521 180.409 12.9451 180.41 11.6065C180.411 7.41782 183.819 4.01018 188.006 4.01018C190.039 4.01094 191.946 4.80208 193.38 6.23809C194.815 7.67384 195.604 9.58261 195.603 11.6125C195.601 15.8012 192.193 19.2091 188.006 19.2091Z" fill="white"/>
</svg>
