<svg width="200" height="26" viewBox="0 0 200 26" fill="none" xmlns="http://www.w3.org/2000/svg">
  <path d="M81.0815 15.3291L84.9526 13.2756L81.0815 11.2637V15.3291Z" fill="white"/>
  <path d="M82.5 1C75.5965 1 70 6.59651 70 13.5C70 20.4035 75.5965 26 82.5 26C89.4035 26 95 20.4035 95 13.5C95 6.59651 89.4035 1 82.5 1ZM89.4793 16.4113C89.3127 17.4658 88.803 18.0385 87.731 18.1596C86.533 18.295 83.8394 18.3573 82.6422 18.3573C81.4034 18.3573 78.8979 18.3054 77.6472 18.2012C76.5722 18.1117 75.8386 17.5112 75.6908 16.4425C75.5833 15.6643 75.5139 14.7393 75.5139 13.2686C75.5139 11.6313 75.5729 10.9385 75.7116 10.1988C75.9096 9.1433 76.4135 8.63202 77.5638 8.51313C78.7709 8.38816 79.9121 8.3258 82.4653 8.3258C83.7134 8.3258 86.4045 8.39044 87.6476 8.50274C88.7333 8.60084 89.3449 9.26498 89.479 10.3238C89.5726 11.0627 89.656 12.1205 89.656 13.2584C89.6562 15.2562 89.4793 16.4113 89.4793 16.4113Z" fill="white"/>
</svg>
